<?xml version="1.0" encoding="UTF-8"?>
<svg version="1.1" xmlns="http://www.w3.org/2000/svg" width="512" height="512">
<path d="M0 0 C83.49 0 166.98 0 253 0 C253 44.88 253 89.76 253 136 C169.51 136 86.02 136 0 136 C0 91.12 0 46.24 0 0 Z M30 29 C29.60732222 31.65751226 29.47294776 33.90309012 29.51416016 36.56079102 C29.51036346 37.32854858 29.50656677 38.09630615 29.50265503 38.8873291 C29.49524178 41.42660292 29.51663978 43.96473405 29.5390625 46.50390625 C29.54144635 48.26602545 29.54235237 50.02814721 29.5418396 51.79026794 C29.5449688 55.48330595 29.56154449 59.17595605 29.58837891 62.86889648 C29.62238393 67.60944072 29.63000688 72.34955901 29.62848854 77.09021091 C29.62903159 80.72840971 29.63998789 84.36651484 29.65449142 88.00468254 C29.66086802 89.75303374 29.66480033 91.50139557 29.66627884 93.24975777 C29.67060137 95.68955812 29.68807851 98.12890099 29.70947266 100.56860352 C29.70856628 101.29540817 29.70765991 102.02221283 29.70672607 102.77104187 C29.64340381 106.83543843 29.64340381 106.83543843 32 110 C33.87517172 110.31818978 33.87517172 110.31818978 36.03491211 110.29052734 C36.86594955 110.30328705 37.696987 110.31604675 38.5532074 110.32919312 C39.45217239 110.33141876 40.35113739 110.33364441 41.27734375 110.3359375 C42.66077721 110.3459227 42.66077721 110.3459227 44.07215881 110.35610962 C46.02489219 110.36624532 47.97766027 110.37092636 49.93041992 110.37060547 C52.92229128 110.37497777 55.91268683 110.41128479 58.90429688 110.44921875 C60.79947411 110.45508682 62.69465837 110.45905628 64.58984375 110.4609375 C65.9352549 110.48249405 65.9352549 110.48249405 67.30784607 110.50448608 C68.55913048 110.4952562 68.55913048 110.4952562 69.83569336 110.48583984 C70.5691246 110.48868988 71.30255585 110.49153992 72.05821228 110.49447632 C74.13028168 110.12783292 74.13028168 110.12783292 75.73501587 108.43008423 C77.43183215 105.17043346 77.42746845 102.22185995 77.40405273 98.6328125 C77.41434761 97.52966705 77.41434761 97.52966705 77.42485046 96.40423584 C77.44312512 93.97762652 77.43928064 91.55166324 77.43359375 89.125 C77.43815488 87.43635854 77.44346025 85.74771893 77.44947815 84.05908203 C77.45841026 80.52173313 77.45598463 76.98460999 77.44604492 73.44726562 C77.43454832 68.91414542 77.45477631 64.38180337 77.48396206 59.8487854 C77.50230634 56.36233573 77.5020353 52.87607322 77.49632454 49.3895874 C77.49617114 47.71823026 77.5022307 46.04686058 77.51461601 44.37554932 C77.5294934 42.0389315 77.51887508 39.70376001 77.50170898 37.3671875 C77.51621094 36.33220123 77.51621094 36.33220123 77.53100586 35.27630615 C77.48054304 31.99635232 77.17838762 30.24300301 75.21681213 27.57090759 C72.86406561 25.90367232 71.86259364 25.49899174 69.02929688 25.49829102 C67.87790222 25.48421959 67.87790222 25.48421959 66.70324707 25.46986389 C65.88336304 25.48109787 65.063479 25.49233185 64.21875 25.50390625 C63.36825073 25.50245102 62.51775146 25.50099579 61.64147949 25.49949646 C59.84607512 25.50115399 58.05065634 25.51269903 56.25537109 25.53344727 C53.5094763 25.56240008 50.76551301 25.55405424 48.01953125 25.54101562 C46.27342813 25.54725342 44.5273311 25.55564469 42.78125 25.56640625 C41.96136597 25.56347061 41.14148193 25.56053497 40.29675293 25.55751038 C35.88426145 25.63042474 33.0398169 25.6785788 30 29 Z M103 29 C102.60732222 31.65751226 102.47294776 33.90309012 102.51416016 36.56079102 C102.51036346 37.32854858 102.50656677 38.09630615 102.50265503 38.8873291 C102.49524178 41.42660292 102.51663978 43.96473405 102.5390625 46.50390625 C102.54144635 48.26602545 102.54235237 50.02814721 102.5418396 51.79026794 C102.5449688 55.48330595 102.56154449 59.17595605 102.58837891 62.86889648 C102.62238393 67.60944072 102.63000688 72.34955901 102.62848854 77.09021091 C102.62903159 80.72840971 102.63998789 84.36651484 102.65449142 88.00468254 C102.66086802 89.75303374 102.66480033 91.50139557 102.66627884 93.24975777 C102.67060137 95.68955812 102.68807851 98.12890099 102.70947266 100.56860352 C102.70856628 101.29540817 102.70765991 102.02221283 102.70672607 102.77104187 C102.64340381 106.83543843 102.64340381 106.83543843 105 110 C106.87550358 110.31138879 106.87550358 110.31138879 109.03491211 110.2746582 C110.28146828 110.28895622 110.28146828 110.28895622 111.5532074 110.30354309 C112.90165489 110.30217598 112.90165489 110.30217598 114.27734375 110.30078125 C115.19963272 110.30506638 116.12192169 110.3093515 117.07215881 110.31376648 C119.02490416 110.31951559 120.97767092 110.32000578 122.93041992 110.31567383 C125.92208335 110.31251627 128.91275599 110.3359573 131.90429688 110.36132812 C133.79947792 110.36360126 135.69466162 110.36430455 137.58984375 110.36328125 C138.48678452 110.372491 139.38372528 110.38170074 140.30784607 110.39118958 C141.55913048 110.38184639 141.55913048 110.38184639 142.83569336 110.37231445 C143.5691246 110.37294388 144.30255585 110.3735733 145.05821228 110.3742218 C147.05215044 110.10812631 147.05215044 110.10812631 148.73501587 108.93582153 C150.65361013 105.99977199 150.42578775 103.04848618 150.40405273 99.65454102 C150.41091599 98.90950317 150.41777924 98.16446533 150.42485046 97.39685059 C150.44316205 94.93234231 150.43927484 92.46846801 150.43359375 90.00390625 C150.43815364 88.29141533 150.44345863 86.57892624 150.44947815 84.86643982 C150.45841791 81.27603729 150.45597655 77.68585708 150.44604492 74.09545898 C150.43455686 69.49393285 150.45475938 64.89317427 150.48396206 60.291749 C150.50230766 56.7546857 150.50203486 53.21780687 150.49632454 49.68070793 C150.49617111 47.98423117 150.50223352 46.28774208 150.51461601 44.5913105 C150.52949301 42.21866847 150.51887459 39.84745093 150.50170898 37.47485352 C150.51621094 36.42348457 150.51621094 36.42348457 150.53100586 35.35087585 C150.48095064 32.04723139 150.18929624 30.25857727 148.21681213 27.56417847 C145.86481845 25.90461615 144.85823398 25.49899066 142.02929688 25.49829102 C140.87790222 25.48421959 140.87790222 25.48421959 139.70324707 25.46986389 C138.88336304 25.48109787 138.063479 25.49233185 137.21875 25.50390625 C136.36825073 25.50245102 135.51775146 25.50099579 134.64147949 25.49949646 C132.84607512 25.50115399 131.05065634 25.51269903 129.25537109 25.53344727 C126.5094763 25.56240008 123.76551301 25.55405424 121.01953125 25.54101562 C119.27342813 25.54725342 117.5273311 25.55564469 115.78125 25.56640625 C114.96136597 25.56347061 114.14148193 25.56053497 113.29675293 25.55751038 C108.88426145 25.63042474 106.0398169 25.6785788 103 29 Z M176 29 C175.60189062 31.6225987 175.46275893 33.82952479 175.49829102 36.453125 C175.49288803 37.20952271 175.48748505 37.96592041 175.48191833 38.74523926 C175.46940398 41.2472234 175.48593901 43.74806284 175.50390625 46.25 C175.50375132 47.9873053 175.50226341 49.72461096 175.49949646 51.46191406 C175.49811126 55.10367097 175.51069048 58.74503461 175.53344727 62.38671875 C175.56183244 67.0577579 175.55909628 71.72814344 175.54635715 76.39923096 C175.53940635 79.98687332 175.54718237 83.57436427 175.55961418 87.1619873 C175.56413452 88.88439351 175.5644604 90.60681594 175.56054878 92.32922363 C175.55764237 94.73544706 175.57411519 97.14076581 175.59594727 99.546875 C175.59144562 100.26073364 175.58694397 100.97459229 175.58230591 101.71008301 C175.62502076 104.53955664 175.69868767 106.53997836 177.27171326 108.94155884 C179.36411813 110.22299403 180.60935267 110.37998723 183.05664062 110.38818359 C183.86758179 110.39764008 184.67852295 110.40709656 185.51403809 110.4168396 C186.38596802 110.41076691 187.25789795 110.40469421 188.15625 110.3984375 C189.05492798 110.40130768 189.95360596 110.40417786 190.8795166 110.40713501 C192.77922191 110.40917615 194.6789482 110.40364278 196.57861328 110.39111328 C199.4890841 110.37506021 202.39816621 110.39096013 205.30859375 110.41015625 C207.1536489 110.40817383 208.99870319 110.40433017 210.84375 110.3984375 C211.71567993 110.40451019 212.58760986 110.41058289 213.48596191 110.4168396 C214.70237366 110.40265488 214.70237366 110.40265488 215.94335938 110.38818359 C216.65600952 110.38579681 217.36865967 110.38341003 218.10290527 110.38095093 C220.05719742 110.10258826 220.05719742 110.10258826 221.72828674 108.93482971 C223.65649914 106.00117889 223.42580227 103.05075326 223.40405273 99.65454102 C223.41091599 98.90950317 223.41777924 98.16446533 223.42485046 97.39685059 C223.44316205 94.93234231 223.43927484 92.46846801 223.43359375 90.00390625 C223.43815364 88.29141533 223.44345863 86.57892624 223.44947815 84.86643982 C223.45841791 81.27603729 223.45597655 77.68585708 223.44604492 74.09545898 C223.43455686 69.49393285 223.45475938 64.89317427 223.48396206 60.291749 C223.50230766 56.7546857 223.50203486 53.21780687 223.49632454 49.68070793 C223.49617111 47.98423117 223.50223352 46.28774208 223.51461601 44.5913105 C223.52949301 42.21866847 223.51887459 39.84745093 223.50170898 37.47485352 C223.51621094 36.42348457 223.51621094 36.42348457 223.53100586 35.35087585 C223.48095064 32.04723139 223.18929624 30.25857727 221.21681213 27.56417847 C218.86481845 25.90461615 217.85823398 25.49899066 215.02929688 25.49829102 C213.87790222 25.48421959 213.87790222 25.48421959 212.70324707 25.46986389 C211.88336304 25.48109787 211.063479 25.49233185 210.21875 25.50390625 C209.36825073 25.50245102 208.51775146 25.50099579 207.64147949 25.49949646 C205.84607512 25.50115399 204.05065634 25.51269903 202.25537109 25.53344727 C199.5094763 25.56240008 196.76551301 25.55405424 194.01953125 25.54101562 C192.27342813 25.54725342 190.5273311 25.55564469 188.78125 25.56640625 C187.96136597 25.56347061 187.14148193 25.56053497 186.29675293 25.55751038 C181.88324393 25.63044156 179.04621634 25.68493316 176 29 Z " fill="#000000" transform="translate(84,325)"/>
<path d="M0 0 C33 0 66 0 100 0 C100 63.36 100 126.72 100 192 C92.41 192 84.82 192 77 192 C76.98018066 189.88996582 76.96036133 187.77993164 76.93994141 185.60595703 C76.87312123 178.64487068 76.79548077 171.68393558 76.71247292 164.72302437 C76.66246508 160.50141835 76.61613567 156.27983791 76.578125 152.05810547 C76.54132855 147.98610461 76.49498446 143.91431542 76.44193649 139.84249496 C76.42336242 138.28675921 76.40826565 136.73097803 76.39665604 135.17517471 C76.37984468 133.0008386 76.3508234 130.82699047 76.31884766 128.65283203 C76.30552399 127.41373077 76.29220032 126.17462952 76.2784729 124.89797974 C76.29801281 121.87386028 76.29801281 121.87386028 74 120 C71.87270274 119.69436732 71.87270274 119.69436732 69.3984375 119.74121094 C68.44404785 119.73490662 67.4896582 119.72860229 66.50634766 119.72210693 C65.47300293 119.7261554 64.4396582 119.73020386 63.375 119.734375 C61.78824463 119.73150482 61.78824463 119.73150482 60.16943359 119.72857666 C57.93001061 119.72721398 55.69057974 119.73091618 53.45117188 119.73925781 C50.01414323 119.74995598 46.5776373 119.73936512 43.140625 119.7265625 C40.96874884 119.72788408 38.79687301 119.73044644 36.625 119.734375 C35.07498291 119.72830231 35.07498291 119.72830231 33.49365234 119.72210693 C32.5392627 119.72841125 31.58487305 119.73471558 30.6015625 119.74121094 C29.75932129 119.74280212 28.91708008 119.74439331 28.04931641 119.74603271 C25.77553604 119.81461483 25.77553604 119.81461483 24 122 C23.66688124 125.03576169 23.66688124 125.03576169 23.68115234 128.65283203 C23.67110672 129.33587402 23.6610611 130.01891602 23.65071106 130.72265625 C23.6197763 132.98436629 23.60281577 135.24595744 23.5859375 137.5078125 C23.56723408 139.07438182 23.5476613 140.64094099 23.5272522 142.20748901 C23.47583748 146.33382183 23.43626197 150.46018734 23.39910889 154.58666992 C23.35912759 158.7961441 23.30800854 163.00548118 23.2578125 167.21484375 C23.16094263 175.47647596 23.07760258 183.73816432 23 192 C15.41 192 7.82 192 0 192 C0 128.64 0 65.28 0 0 Z M28.46044922 26.02661133 C27.97850098 26.67782959 27.49655273 27.32904785 27 28 C28.24976756 31.65316671 28.67098753 32.78065836 32 35 C34.69843 35.2318588 37.29127705 35.35194206 39.9921875 35.37109375 C40.77514191 35.38012222 41.55809631 35.3891507 42.36477661 35.39845276 C44.02065204 35.41295339 45.67658474 35.42184154 47.33251953 35.42553711 C49.85938665 35.43742654 52.38380511 35.48660206 54.91015625 35.53710938 C56.52082144 35.54657492 58.1315016 35.55380933 59.7421875 35.55859375 C60.8705452 35.58789223 60.8705452 35.58789223 62.021698 35.61778259 C66.15593355 35.58242697 67.80231052 35.16614941 71.01611328 32.46508789 C71.6707959 31.65160889 72.32547852 30.83812988 73 30 C71.88145414 26.27385847 71.88145414 26.27385847 69 24 C66.20273901 23.86441943 63.43158669 23.78729529 60.6328125 23.76171875 C59.80167938 23.753647 58.97054626 23.74557526 58.11422729 23.73725891 C56.35400478 23.72341929 54.59375545 23.71269658 52.83349609 23.70483398 C50.1423867 23.68761127 47.45250281 23.64372463 44.76171875 23.59960938 C43.05209237 23.58948323 41.34245555 23.58096688 39.6328125 23.57421875 C38.42638596 23.54795662 38.42638596 23.54795662 37.19558716 23.52116394 C33.44601942 23.5357119 31.44076704 23.64825925 28.46044922 26.02661133 Z M27 51 C27.27034634 53.43717258 27.27034634 53.43717258 28 56 C31.8521916 58.56812773 35.03476882 58.28804485 39.5 58.265625 C40.33208984 58.26753845 41.16417969 58.2694519 42.02148438 58.27142334 C43.77995099 58.27278374 45.5384277 58.26909738 47.296875 58.26074219 C49.98981262 58.25004048 52.68208314 58.26064221 55.375 58.2734375 C57.08333481 58.27211588 58.7916692 58.26955343 60.5 58.265625 C61.30630859 58.26967346 62.11261719 58.27372192 62.94335938 58.27789307 C66.81474692 58.2453892 68.70466426 58.19689049 72 56 C73.17612195 54.21328929 73.17612195 54.21328929 73 52 C70.24029578 48.39483139 68.74026188 47.1231705 64.20703125 46.36889648 C62.74241924 46.34283096 61.27711262 46.34506283 59.8125 46.37109375 C59.03237549 46.36868179 58.25225098 46.36626984 57.44848633 46.36378479 C55.80447286 46.36476122 54.16042568 46.37810628 52.51660156 46.40307617 C50.00732176 46.43739985 47.50156422 46.42372463 44.9921875 46.40429688 C43.39061009 46.41119574 41.78904172 46.4208685 40.1875 46.43359375 C39.44153564 46.42863388 38.69557129 46.42367401 37.92700195 46.41856384 C33.01236184 46.5290814 30.49296028 47.54864301 27 51 Z M28.45654297 72.86254883 C26.74330271 74.930672 26.74330271 74.930672 27.0625 77.625 C27.86655546 80.32289761 27.86655546 80.32289761 31 82 C33.86655609 82.19618734 36.63358508 82.28001722 39.5 82.265625 C40.33208984 82.26753845 41.16417969 82.2694519 42.02148438 82.27142334 C43.77995099 82.27278374 45.5384277 82.26909738 47.296875 82.26074219 C49.98981262 82.25004048 52.68208314 82.26064221 55.375 82.2734375 C57.08333481 82.27211588 58.7916692 82.26955343 60.5 82.265625 C61.30630859 82.26967346 62.11261719 82.27372192 62.94335938 82.27789307 C66.81474692 82.2453892 68.70466426 82.19689049 72 80 C73.0950504 77.47296063 73.15295704 76.4118074 72.1875 73.8125 C71.11878013 71.84977807 71.11878013 71.84977807 69 71 C66.20273901 70.86441943 63.43158669 70.78729529 60.6328125 70.76171875 C59.80167938 70.753647 58.97054626 70.74557526 58.11422729 70.73725891 C56.35400478 70.72341929 54.59375545 70.71269658 52.83349609 70.70483398 C50.1423867 70.68761127 47.45250281 70.64372463 44.76171875 70.59960938 C43.05209237 70.58948323 41.34245555 70.58096688 39.6328125 70.57421875 C38.42638596 70.54795662 38.42638596 70.54795662 37.19558716 70.52116394 C33.55851158 70.53527544 31.43246884 70.68330728 28.45654297 72.86254883 Z " fill="#000000" transform="translate(347,269)"/>
<path d="M0 0 C1.30288467 -0.00524185 2.60576935 -0.0104837 3.94813538 -0.0158844 C6.69753757 -0.02478501 9.44664883 -0.02242772 12.19604492 -0.01245117 C15.70081173 -0.00096613 19.20457022 -0.02117964 22.70920467 -0.05036831 C26.07702123 -0.07323963 29.44460787 -0.06625894 32.8125 -0.0625 C34.06167709 -0.07373398 35.31085419 -0.08496796 36.59788513 -0.09654236 C45.05859633 -0.02916855 50.60908229 0.96488191 56.95703125 6.6640625 C59.03355341 10.45853213 58.91992261 13.5010734 58.72265625 17.74609375 C58.70460938 18.48666016 58.6865625 19.22722656 58.66796875 19.99023438 C58.62112962 21.80525085 58.54939414 23.61959541 58.47265625 25.43359375 C59.58189453 25.44293945 60.69113281 25.45228516 61.83398438 25.46191406 C65.97923831 25.50201477 70.12376565 25.56782773 74.26855469 25.64111328 C76.05687065 25.66920709 77.84530811 25.69047889 79.63378906 25.70458984 C82.21612227 25.72618126 84.79701244 25.77291084 87.37890625 25.82421875 C88.16881958 25.82544739 88.95873291 25.82667603 89.77258301 25.82794189 C96.22758231 25.99537988 101.56411707 27.8065261 106.41015625 32.18359375 C108.64610601 36.91854618 109.0280225 40.82920236 107.34765625 45.68359375 C103.82966393 50.84331582 100.30251116 52.76527088 94.34204102 53.90209961 C93.60139404 54.03624268 92.86074707 54.17038574 92.09765625 54.30859375 C85.37715816 55.70688518 81.02432058 56.99379979 76.47265625 62.43359375 C74.41362428 66.17728824 74.20591955 69.03401395 73.47265625 73.43359375 C67.20265625 73.43359375 60.93265625 73.43359375 54.47265625 73.43359375 C53.48265625 68.97859375 53.48265625 68.97859375 52.47265625 64.43359375 C50.32710361 60.28318045 47.17097624 57.38022188 42.7746582 55.75927734 C36.47854967 53.81580706 30.01802612 54.04159874 23.49443626 54.08403397 C21.16099549 54.09790672 18.82839216 54.09125957 16.49494934 54.07919312 C9.86807401 54.04840082 3.24140435 54.05318789 -3.38549805 54.07324219 C-7.45502734 54.08415224 -11.52391846 54.07099831 -15.59335899 54.04334641 C-17.13910208 54.03790952 -18.68490917 54.04196056 -20.23060036 54.05574417 C-22.3872748 54.07477442 -24.54184864 54.06341254 -26.69848633 54.04541016 C-27.92376541 54.04779694 -29.14904449 54.05018372 -30.41145325 54.05264282 C-33.52734375 53.43359375 -33.52734375 53.43359375 -35.95805359 51.09066772 C-37.52734375 48.43359375 -37.52734375 48.43359375 -37.46484375 45.30859375 C-36.51537002 42.39687431 -36.00150568 41.17467067 -33.52734375 39.43359375 C-30.54172411 38.50331213 -27.78457896 38.28570071 -24.66699219 38.22827148 C-23.70629822 38.20832626 -22.74560425 38.18838104 -21.75579834 38.16783142 C-20.72650208 38.15111893 -19.69720581 38.13440643 -18.63671875 38.1171875 C-17.57696838 38.0964064 -16.51721802 38.07562531 -15.425354 38.05421448 C-12.04274937 37.98887189 -8.66006763 37.92990494 -5.27734375 37.87109375 C-2.98306497 37.827894 -0.68879396 37.78427924 1.60546875 37.74023438 C7.22778327 37.63320615 12.85017435 37.53141136 18.47265625 37.43359375 C18.72281498 34.01716616 18.72281498 34.01716616 18.47265625 30.43359375 C14.81474856 27.99498862 12.96896939 28.16816989 8.609375 28.125 C7.23371989 28.09983085 5.85806895 28.07443296 4.48242188 28.04882812 C2.32333547 28.02015793 0.16432174 27.99613009 -1.99487305 27.97729492 C-4.08551135 27.95550996 -6.17528886 27.91605573 -8.265625 27.875 C-9.51384033 27.86154541 -10.76205566 27.84809082 -12.0480957 27.83422852 C-16.46210176 27.32595654 -20.08994561 26.12619574 -23.0234375 22.671875 C-25.59500055 17.41137465 -26.02552751 14.14541935 -24.52734375 8.43359375 C-19.16282621 -0.85114814 -9.49159093 -0.0222697 0 0 Z " fill="#000000" transform="translate(95.52734375,171.56640625)"/>
<path d="M0 0 C24.42 0 48.84 0 74 0 C74 17.82 74 35.64 74 54 C49.58 54 25.16 54 0 54 C0 36.18 0 18.36 0 0 Z " fill="#000000" transform="translate(360,204)"/>
<path d="M0 0 C4.31248609 -0.02886537 8.62494762 -0.04675255 12.9375 -0.0625 C14.78504883 -0.07506836 14.78504883 -0.07506836 16.66992188 -0.08789062 C17.83974609 -0.09111328 19.00957031 -0.09433594 20.21484375 -0.09765625 C21.84087524 -0.10551147 21.84087524 -0.10551147 23.49975586 -0.11352539 C26 0 26 0 27 1 C27.3050697 3.77754887 27.5492956 6.53875096 27.75610352 9.32421875 C27.82452454 10.19748306 27.89294556 11.07074738 27.96343994 11.97047424 C28.18982836 14.87581616 28.4095119 17.78162217 28.62890625 20.6875 C28.78411706 22.70477584 28.9396336 24.72202818 29.09544373 26.73925781 C29.42193173 30.97943774 29.74520428 35.21984719 30.06616211 39.46044922 C30.47653431 44.88001438 30.89396854 50.29900636 31.31375217 55.71784973 C31.63633865 59.89052808 31.95552307 64.0634613 32.27366447 68.23648071 C32.42621331 70.23311605 32.57971114 72.22967913 32.7341938 74.22616577 C32.95060715 77.03074049 33.16252847 79.83562069 33.37329102 82.640625 C33.4691172 83.86610802 33.4691172 83.86610802 33.56687927 85.11634827 C33.62433319 85.8929631 33.68178711 86.66957794 33.74098206 87.46972656 C33.79130364 88.1311969 33.84162523 88.79266724 33.89347172 89.47418213 C34.05537141 93.31287291 34 97.15789661 34 101 C20.14 101 6.28 101 -8 101 C-7.27094168 82.36344681 -5.85596688 63.79266145 -4.41601562 45.20043945 C-4.06471012 40.66267449 -3.72012877 36.12442538 -3.37722778 31.58601856 C-3.11079693 28.07119592 -2.840494 24.55667928 -2.56903076 21.04224205 C-2.44014748 19.36655289 -2.31257425 17.69076243 -2.18634033 16.0148716 C-2.01104937 13.69423532 -1.83045533 11.37407206 -1.6484375 9.05395508 C-1.57203033 8.02019241 -1.57203033 8.02019241 -1.49407959 6.96554565 C-1.11422217 2.22844433 -1.11422217 2.22844433 0 0 Z " fill="#000000" transform="translate(248,214)"/>
<path d="M0 0 C31.68 0 63.36 0 96 0 C94.13947898 9.30260509 90.24205936 18.08433676 87 27 C61.26 27 35.52 27 9 27 C0 3 0 3 0 0 Z " fill="#000000" transform="translate(349,166)"/>
<path d="M0 0 C1.22641708 -0.00241196 2.45283417 -0.00482391 3.71641541 -0.00730896 C6.3061751 -0.0063304 8.89595569 0.00706503 11.4855957 0.03198242 C15.45400846 0.06631252 19.4201978 0.05263352 23.38867188 0.03320312 C25.90495741 0.04010073 28.4212372 0.04977233 30.9375 0.0625 C32.72040184 0.0550602 32.72040184 0.0550602 34.5393219 0.04747009 C35.64404343 0.06330643 36.74876495 0.07914276 37.88696289 0.09545898 C38.8578334 0.10165756 39.82870392 0.10785614 40.82899475 0.11424255 C44.12233685 0.77290316 45.29990946 2.06888431 47.40234375 4.62890625 C49.30114205 8.42650286 48.777951 13.29023869 48.91992188 17.5078125 C48.94065566 22.0418367 48.94065566 22.0418367 51.40234375 25.62890625 C53.37049094 25.91639528 53.37049094 25.91639528 55.61328125 25.8671875 C56.86238281 25.89135742 56.86238281 25.89135742 58.13671875 25.91601562 C59.88924964 25.93286688 61.64193154 25.93818018 63.39453125 25.93164062 C69.80070899 26.08487481 69.80070899 26.08487481 72.97265625 28.953125 C74.86297567 32.4910179 74.96808537 34.66871493 74.40234375 38.62890625 C72.86188558 41.51726531 71.71685586 43.20079792 68.53125 44.23828125 C67.14583346 44.54207769 65.75767882 44.83362937 64.3671875 45.11328125 C61.33200787 45.90978962 59.56328219 47.4044108 57.40234375 49.62890625 C55.55920061 53.40734968 55.05259933 56.76669663 54.77734375 60.94140625 C54.70257813 62.01003906 54.6278125 63.07867187 54.55078125 64.1796875 C54.47730469 65.39205078 54.47730469 65.39205078 54.40234375 66.62890625 C52.42234375 66.62890625 50.44234375 66.62890625 48.40234375 66.62890625 C48.34626953 65.30826172 48.34626953 65.30826172 48.2890625 63.9609375 C48.22332031 62.79949219 48.15757812 61.63804687 48.08984375 60.44140625 C48.03183594 59.29285156 47.97382813 58.14429688 47.9140625 56.9609375 C47.37683726 53.46282202 46.33336786 51.54356195 44.40234375 48.62890625 C44.40234375 47.96890625 44.40234375 47.30890625 44.40234375 46.62890625 C43.51546875 46.46390625 42.62859375 46.29890625 41.71484375 46.12890625 C37.11369587 44.04536759 35.78604776 40.92617195 33.40234375 36.62890625 C31.58581207 33.53407449 30.54674345 31.93861178 27.03515625 30.98828125 C25.27869811 30.6726279 23.51336878 30.40199505 21.7421875 30.18359375 C19.01082621 29.53609241 18.10031788 28.83112725 16.40234375 26.62890625 C15.39749492 24.29765696 14.39712128 21.96447088 13.40234375 19.62890625 C10.84396752 18.34971814 8.99439481 18.50264302 6.1328125 18.48828125 C5.07900391 18.46894531 4.02519531 18.44960937 2.93945312 18.4296875 C0.7182794 18.39601373 -1.50318196 18.37761806 -3.72460938 18.375 C-11.8245273 18.18743334 -11.8245273 18.18743334 -15.8203125 15.30078125 C-18.18816783 11.74119214 -18.34671783 9.82365108 -17.59765625 5.62890625 C-13.23766067 -1.0402159 -7.2050254 -0.0805053 0 0 Z " fill="#000000" transform="translate(209.59765625,136.37109375)"/>
<path d="M0 0 C1.03630051 -0.00700928 2.07260101 -0.01401855 3.14030457 -0.02124023 C6.57224202 -0.03886804 10.00335659 -0.02717393 13.43530273 -0.01367188 C15.82462217 -0.01636683 18.21394054 -0.02024928 20.60325623 -0.02526855 C25.61777154 -0.03117131 30.63200214 -0.02258063 35.64648438 -0.00390625 C42.05317101 0.01879704 48.45918418 0.00581938 54.86584568 -0.01819611 C59.80489598 -0.03270665 64.74378891 -0.02802248 69.68284416 -0.01768494 C72.04338601 -0.01502768 74.40394242 -0.01825192 76.76446724 -0.02760315 C80.07903489 -0.03784526 83.39254186 -0.02215612 86.70703125 0 C88.15310257 -0.01214539 88.15310257 -0.01214539 89.62838745 -0.02453613 C99.93961884 0.1021465 108.48953709 3.20087442 115.93139648 10.37695312 C122.9937686 18.43982796 124.11702546 28.45114006 124.14233398 38.78320312 C124.15231918 40.21693268 124.15231918 40.21693268 124.1625061 41.67962646 C124.17257536 43.6864633 124.17732491 45.69333324 124.17700195 47.70019531 C124.1814038 50.77268749 124.21786187 53.84377428 124.25561523 56.91601562 C124.26147885 58.8717399 124.26545128 60.82747096 124.26733398 62.78320312 C124.28170502 63.69990784 124.29607605 64.61661255 124.31088257 65.56109619 C124.26534587 71.8868967 124.26534587 71.8868967 121.93383789 75.09082031 C119.80639648 76.51757812 119.80639648 76.51757812 117.30639648 77.08007812 C114.80639648 76.51757812 114.80639648 76.51757812 112.67944336 74.61279297 C110.01436442 70.20874308 110.27656872 66.48506496 110.33764648 61.43164062 C110.33059692 60.45649506 110.32354736 59.48134949 110.31628418 58.47665405 C110.28684168 54.31665335 110.30340419 50.15712297 110.31567383 45.99707031 C110.31806081 42.95414477 110.29710076 39.9119725 110.27514648 36.86914062 C110.28646606 35.93663483 110.29778564 35.00412903 110.30944824 34.04336548 C110.26287497 27.99400777 109.31579768 24.48168272 105.80639648 19.51757812 C99.53460528 13.41083406 92.82475557 13.22194946 84.53417969 13.23046875 C83.5139975 13.22363571 82.49381531 13.21680267 81.44271851 13.20976257 C79.23454799 13.19620431 77.02634633 13.18713197 74.81814003 13.18205261 C71.32601122 13.17375406 67.8341427 13.15324219 64.34208679 13.1295166 C55.67367027 13.07314676 47.00519079 13.03784306 38.33666992 13.00189209 C31.00320582 12.97068939 23.66986921 12.93154195 16.3365078 12.88163757 C12.89142045 12.86152801 9.44643088 12.85324285 6.001297 12.84533691 C3.89767089 12.83236976 1.79404809 12.81885022 -0.30957031 12.8046875 C-1.27118576 12.8056694 -2.23280121 12.80665131 -3.22355652 12.80766296 C-4.10249573 12.7993898 -4.98143494 12.79111664 -5.88700867 12.78259277 C-6.65075648 12.77965965 -7.4145043 12.77672653 -8.20139599 12.77370453 C-10.19360352 12.51757812 -10.19360352 12.51757812 -13.19360352 10.51757812 C-14.13110352 7.64257812 -14.13110352 7.64257812 -14.19360352 4.51757812 C-10.79881055 -0.88554879 -5.72864648 -0.0474173 0 0 Z " fill="#000000" transform="translate(310.193603515625,50.482421875)"/>
<path d="M0 0 C10.89 0 21.78 0 33 0 C33 20.46 33 40.92 33 62 C22.11 62 11.22 62 0 62 C0 41.54 0 21.08 0 0 Z " fill="#000000" transform="translate(381,399)"/>
<path d="M0 0 C8.91 0 17.82 0 27 0 C28.1956971 10.76127388 29.26098297 21.5193435 30.125 32.3125 C30.21249512 33.35970215 30.29999023 34.4069043 30.39013672 35.48583984 C31.00391232 43.3957648 31 51.00455527 31 59 C19.45 59 7.9 59 -4 59 C-4 46.625 -4 46.625 -3.6328125 42.3449707 C-3.55272949 41.38480545 -3.47264648 40.4246402 -3.39013672 39.43537903 C-3.25889404 37.94562813 -3.25889404 37.94562813 -3.125 36.42578125 C-3.03621582 35.37593552 -2.94743164 34.32608978 -2.85595703 33.24443054 C-2.57495931 29.93340141 -2.28759353 26.62296206 -2 23.3125 C-1.80686803 21.05016633 -1.61415582 18.78779679 -1.421875 16.52539062 C-0.95354167 11.01641794 -0.47657668 5.50829032 0 0 Z " fill="#000000" transform="translate(146,256)"/>
<path d="M0 0 C0.91522934 -0.00990463 1.83045868 -0.01980927 2.77342224 -0.03001404 C3.7755072 -0.02551239 4.77759216 -0.02101074 5.81004333 -0.01637268 C7.39594521 -0.02666756 7.39594521 -0.02666756 9.0138855 -0.03717041 C12.52086197 -0.05551974 16.02739422 -0.05158706 19.53440857 -0.0459137 C21.97239325 -0.05047368 24.41037664 -0.05577871 26.84835815 -0.0617981 C31.96714993 -0.07074675 37.08578588 -0.06828851 42.20457458 -0.05836487 C48.74924357 -0.04691091 55.29337016 -0.06702339 61.83796787 -0.09628201 C66.87818804 -0.11468026 71.91827936 -0.11434362 76.9585247 -0.10864449 C79.37013951 -0.10849151 81.78176319 -0.1145159 84.19334602 -0.12693596 C87.57763611 -0.14190063 90.96093924 -0.13112526 94.34519958 -0.11402893 C95.33311493 -0.1236969 96.32103027 -0.13336487 97.33888245 -0.14332581 C106.84505923 -0.04333839 114.77164855 2.76983503 121.77268982 9.31736755 C126.74354032 15.17192481 129.66711998 22.3076524 129.71800232 29.95018005 C129.73218201 30.92084412 129.74636169 31.89150818 129.76097107 32.8915863 C129.53050232 35.38768005 129.53050232 35.38768005 127.53050232 37.38768005 C121.30344167 37.95377648 121.30344167 37.95377648 118.86643982 36.16893005 C117.20232616 33.95011184 116.9670449 32.31115444 116.59300232 29.57518005 C115.49828751 23.46079733 113.49768893 19.87310668 108.46800232 16.07518005 C104.85573986 14.00005056 102.26648903 13.26317418 98.17248535 13.24964905 C97.28224167 13.24419571 96.39199799 13.23874237 95.47477722 13.23312378 C94.01361481 13.23156029 94.01361481 13.23156029 92.52293396 13.22996521 C91.49504257 13.22488449 90.46715118 13.21980377 89.40811157 13.21456909 C87.17368487 13.20386078 84.93924741 13.19524241 82.70480537 13.18844986 C79.17068975 13.17667603 75.63669716 13.15722796 72.10263062 13.1353302 C62.05364557 13.07365594 52.00467342 13.01961634 41.95555115 12.98631287 C35.811746 12.9654017 29.66816549 12.93012859 23.52448845 12.88555527 C21.18051734 12.87136847 18.83650649 12.86266682 16.49249458 12.85950089 C13.21724456 12.85460815 9.94259402 12.83149258 6.66746521 12.80418396 C5.20933914 12.80869316 5.20933914 12.80869316 3.72175598 12.81329346 C2.38216072 12.79665398 2.38216072 12.79665398 1.01550293 12.77967834 C0.24140611 12.7763682 -0.53269072 12.77305805 -1.33024502 12.7696476 C-4.07386489 12.27976916 -5.4624503 11.29818972 -7.46949768 9.38768005 C-7.90699768 6.38768005 -7.90699768 6.38768005 -7.46949768 3.38768005 C-5.24261299 0.41980341 -3.63699833 0.01111046 0 0 Z " fill="#000000" transform="translate(278.46949768066406,76.61231994628906)"/>
<path d="M0 0 C8.58 0 17.16 0 26 0 C26 20.79 26 41.58 26 63 C17.42 63 8.84 63 0 63 C0 42.21 0 21.42 0 0 Z " fill="#000000" transform="translate(197,362)"/>
<path d="M0 0 C8.58 0 17.16 0 26 0 C26 20.79 26 41.58 26 63 C17.42 63 8.84 63 0 63 C0 42.21 0 21.42 0 0 Z " fill="#000000" transform="translate(124,362)"/>
<path d="M0 0 C8.25 0 16.5 0 25 0 C25 20.79 25 41.58 25 63 C16.75 63 8.5 63 0 63 C-1.76723811 61.23276189 -1.12762833 58.6968116 -1.12939453 56.30273438 C-1.13254669 55.08477173 -1.13569885 53.86680908 -1.13894653 52.61193848 C-1.13715675 51.27254195 -1.1351058 49.93314576 -1.1328125 48.59375 C-1.1334856 47.2299396 -1.13445567 45.86612932 -1.13571167 44.50231934 C-1.13718838 41.64069479 -1.13503497 38.7791014 -1.13037109 35.91748047 C-1.12467381 32.24181386 -1.12795296 28.56622026 -1.13394356 24.89055634 C-1.13754991 22.07337896 -1.13641025 19.25621902 -1.13381577 16.43904114 C-1.1331467 15.08339937 -1.13397421 13.72775604 -1.13629532 12.37211609 C-1.13882301 10.48049956 -1.13429014 8.58887751 -1.12939453 6.69726562 C-1.12859894 5.61884399 -1.12780334 4.54042236 -1.12698364 3.42932129 C-1 1 -1 1 0 0 Z " fill="#000000" transform="translate(271,362)"/>
<path d="M0 0 C37.62 0 75.24 0 114 0 C114 4.62 114 9.24 114 14 C76.38 14 38.76 14 0 14 C0 9.38 0 4.76 0 0 Z " fill="#000000" transform="translate(340,142)"/>
</svg>
