<?xml version="1.0" encoding="UTF-8"?>
<svg version="1.1" xmlns="http://www.w3.org/2000/svg" width="512" height="512">
<path d="M0 0 C4.30750783 3.70942952 4.30750783 3.70942952 6.12890625 5.71875 C6.12890625 6.37875 6.12890625 7.03875 6.12890625 7.71875 C7.11890625 8.04875 8.10890625 8.37875 9.12890625 8.71875 C25.00647336 26.03688533 32.78632355 50.1688365 32.3125 73.4140625 C31.13318215 94.64178383 24.14641811 114.54007999 10.12890625 130.71875 C9.47535156 131.52699219 8.82179687 132.33523437 8.1484375 133.16796875 C0.36825484 142.42199293 -9.18541661 148.54172418 -19.80859375 154.03125 C-20.40357666 154.34465332 -20.99855957 154.65805664 -21.61157227 154.98095703 C-28.25171317 158.26114281 -34.44286947 159.5964002 -41.87109375 161.71875 C-12.66609375 162.21375 -12.66609375 162.21375 17.12890625 162.71875 C17.12890625 155.78875 17.12890625 148.85875 17.12890625 141.71875 C20.12890625 139.71875 20.12890625 139.71875 23.25390625 140.03125 C26.12890625 140.71875 26.12890625 140.71875 27.12890625 141.71875 C27.37080586 145.97581653 27.35740576 150.23853162 27.36914062 154.50170898 C27.37885123 156.64411161 27.40986378 158.78555697 27.44140625 160.92773438 C27.44793561 162.28384845 27.45318635 163.63996941 27.45703125 164.99609375 C27.46637695 166.23609131 27.47572266 167.47608887 27.48535156 168.75366211 C27.36772461 169.73214111 27.25009766 170.71062012 27.12890625 171.71875 C23.38698817 174.21336205 20.49797862 173.98647156 16.16918945 173.94580078 C15.35920502 173.94609283 14.54922058 173.94638489 13.71469116 173.94668579 C11.0362478 173.94529196 8.35808229 173.92972832 5.6796875 173.9140625 C3.82309623 173.91033256 1.966503 173.9074855 0.10990906 173.90548706 C-4.77769399 173.89784913 -9.66517827 173.87819925 -14.55273438 173.8560791 C-19.5396972 173.83562413 -24.5266792 173.82648609 -29.51367188 173.81640625 C-39.29953137 173.79495353 -49.08530268 173.76081563 -58.87109375 173.71875 C-58.54109375 174.37875 -58.21109375 175.03875 -57.87109375 175.71875 C-57.78800737 177.09423156 -57.76373359 178.47360796 -57.7734375 179.8515625 C-57.77827148 181.06005859 -57.77827148 181.06005859 -57.78320312 182.29296875 C-57.79577148 183.55560547 -57.79577148 183.55560547 -57.80859375 184.84375 C-57.81310547 185.69324219 -57.81761719 186.54273438 -57.82226562 187.41796875 C-57.83406501 189.51825909 -57.85200069 191.6185133 -57.87109375 193.71875 C-39.83405809 193.61150646 -21.79706579 193.49874424 -3.76010609 193.37941074 C4.61474918 193.32413095 12.98960871 193.27065759 21.36450195 193.22143555 C28.66398837 193.17852945 35.96344409 193.1322353 43.26288301 193.08187145 C47.12791966 193.05532226 50.99295043 193.03047056 54.85802269 193.00967598 C58.49657431 192.99004658 62.13506777 192.9658842 65.7735672 192.93825912 C67.74425285 192.92447284 69.7149702 192.91548042 71.6856842 192.90663147 C72.86212494 192.89684265 74.03856567 192.88705383 75.25065613 192.87696838 C76.27108096 192.87051583 77.29150579 192.86406328 78.34285259 192.8574152 C81.03919238 192.72321517 83.49717519 192.2981904 86.12890625 191.71875 C89.44144663 191.50901746 92.78382393 191.36322812 96.01275253 192.21667385 C98.69123217 192.85216679 101.1713958 192.85969752 103.92486572 192.87696838 C105.10834595 192.8867572 106.29182617 192.89654602 107.51116943 192.90663147 C108.80589172 192.91238693 110.10061401 192.9181424 111.43457031 192.92407227 C112.81445609 192.93365452 114.19433894 192.94366481 115.57421875 192.95407104 C119.31764549 192.98108856 123.0610848 193.00211517 126.80455494 193.02207303 C130.71768797 193.04395205 134.6307824 193.07133136 138.54388428 193.09812927 C145.9527503 193.14803025 153.36163777 193.19297871 160.77054572 193.23615164 C169.20581179 193.28554619 177.64103912 193.34045609 186.07626772 193.39583123 C203.42711142 193.50961145 220.77799109 193.61645911 238.12890625 193.71875 C238.11730469 192.44257813 238.10570312 191.16640625 238.09375 189.8515625 C238.08437208 188.18229313 238.07527188 186.51302217 238.06640625 184.84375 C238.05802734 184.00199219 238.04964844 183.16023437 238.04101562 182.29296875 C238.03618164 181.08447266 238.03618164 181.08447266 238.03125 179.8515625 C238.02339478 178.73612061 238.02339478 178.73612061 238.01538086 177.59814453 C238.12890625 175.71875 238.12890625 175.71875 239.12890625 173.71875 C238.08098907 173.72319122 237.0330719 173.72763245 235.95339966 173.73220825 C226.0942191 173.77269162 216.23505533 173.80270417 206.37581062 173.82237434 C201.30665762 173.8328268 196.23757152 173.84701257 191.16845703 173.86962891 C186.2796144 173.89130528 181.39083627 173.9033076 176.50194931 173.90850449 C174.63356383 173.91220963 172.76518202 173.91944449 170.89682388 173.93021011 C168.28676886 173.94465594 165.67698288 173.94673086 163.06689453 173.94580078 C162.28862305 173.95299133 161.51035156 173.96018188 160.70849609 173.96759033 C155.35701057 173.94685432 155.35701057 173.94685432 153.12890625 171.71875 C152.09510444 165.82607967 152.00389614 159.93781018 151.94140625 153.96875 C151.92182861 152.8693811 151.92182861 152.8693811 151.90185547 151.74780273 C151.89532225 147.6603398 152.07119494 144.30602671 154.12890625 140.71875 C157.06640625 139.78125 157.06640625 139.78125 160.12890625 139.71875 C161.11890625 140.37875 162.10890625 141.03875 163.12890625 141.71875 C163.12890625 148.64875 163.12890625 155.57875 163.12890625 162.71875 C182.59890625 162.38875 202.06890625 162.05875 222.12890625 161.71875 C213.71390625 159.24375 213.71390625 159.24375 205.12890625 156.71875 C180.38000756 144.94306433 162.72794293 127.29122128 152.87890625 101.4375 C145.06476414 77.76524596 146.2646028 51.78826905 157.22265625 29.328125 C164.31464087 15.59467117 174.3936125 3.53717505 187.12890625 -5.28125 C187.89976562 -5.85230469 188.670625 -6.42335938 189.46484375 -7.01171875 C195.20761387 -11.01398778 201.16552759 -13.66836 207.69140625 -16.09375 C208.4704834 -16.38378906 209.24956055 -16.67382812 210.05224609 -16.97265625 C233.29933169 -25.23309144 259.59617366 -23.16775088 281.859375 -12.96484375 C304.30838484 -1.40507882 321.75932958 18.44497272 329.56640625 42.53125 C330.11970547 44.58527862 330.64273141 46.64780634 331.12890625 48.71875 C331.46341797 50.07033203 331.46341797 50.07033203 331.8046875 51.44921875 C336.81416645 75.61058321 331.71825809 99.87883665 319.0625 120.78125 C304.97358189 142.18502054 284.84309753 155.54020218 260.12890625 161.71875 C279.26890625 162.04875 298.40890625 162.37875 318.12890625 162.71875 C318.12890625 156.11875 318.12890625 149.51875 318.12890625 142.71875 C319.11890625 141.72875 320.10890625 140.73875 321.12890625 139.71875 C324.19140625 139.84375 324.19140625 139.84375 327.12890625 140.71875 C330.3683858 145.57796933 329.45678151 150.94587824 329.44140625 156.65625 C329.45751953 157.84927734 329.47363281 159.04230469 329.49023438 160.27148438 C329.49087891 161.41810547 329.49152344 162.56472656 329.4921875 163.74609375 C329.49665894 165.31991821 329.49665894 165.31991821 329.5012207 166.92553711 C329.05787524 170.25164558 328.55191585 171.40314297 326.12890625 173.71875 C323.51799798 174.10118033 321.329055 174.22575681 318.7199707 174.17285156 C317.96850769 174.17343567 317.21704468 174.17401978 316.44281006 174.17462158 C313.95879937 174.17183467 311.47598854 174.14071578 308.9921875 174.109375 C307.27012284 174.10191473 305.54804969 174.09622079 303.82597351 174.09222412 C299.29328984 174.07695086 294.76111881 174.03765475 290.2286377 173.9934082 C285.60366755 173.95249181 280.97861458 173.93422089 276.35351562 173.9140625 C267.27842059 173.87116191 258.20370605 173.80289031 249.12890625 173.71875 C249.13937988 174.58677246 249.14985352 175.45479492 249.16064453 176.34912109 C249.19470341 179.56574528 249.21979392 182.78227767 249.23876953 185.99902344 C249.24883502 187.39195781 249.26248859 188.78487102 249.27978516 190.17773438 C249.30400845 192.1782936 249.31431439 194.17900615 249.32421875 196.1796875 C249.33469238 197.38415527 249.34516602 198.58862305 249.35595703 199.82958984 C249.12890625 202.71875 249.12890625 202.71875 247.12890625 204.71875 C244.86816978 204.98046303 244.86816978 204.98046303 241.99105835 204.9972229 C240.90288315 205.00838638 239.81470795 205.01954987 238.69355774 205.03105164 C237.49450302 205.03321182 236.2954483 205.03537201 235.06005859 205.03759766 C233.80155594 205.04764328 232.54305328 205.0576889 231.24641418 205.06803894 C227.79004431 205.0954032 224.33371533 205.11050724 220.87726545 205.12346697 C217.2670569 205.13906953 213.65693223 205.16586884 210.04678345 205.1914978 C203.20805824 205.23833668 196.36931734 205.27505597 189.53051341 205.30817068 C181.74579922 205.34635606 173.96116917 205.39577554 166.17652583 205.44615483 C150.160713 205.54955063 134.14485356 205.63878605 118.12890625 205.71875 C119.02157196 206.47356659 119.91423767 207.22838318 120.83395386 208.006073 C122.01674987 209.00648311 123.19953966 210.00690057 124.38232422 211.00732422 C124.96930588 211.50362839 125.55628754 211.99993256 126.16105652 212.51127625 C130.20924364 215.93565426 134.23914572 219.38024384 138.25390625 222.84375 C142.31474642 226.33741171 146.40411109 229.78324933 150.56640625 233.15625 C155.6719809 237.29935991 160.62690678 241.6010545 165.58178711 245.92163086 C169.21628476 249.08340838 172.88411468 252.18725206 176.62890625 255.21875 C181.66318897 259.29696716 186.55401333 263.52492058 191.43920898 267.77905273 C196.02006714 271.76591333 200.63640912 275.7069408 205.28027344 279.62011719 C208.68988968 282.49521919 212.08065167 285.39101119 215.4609375 288.30053711 C226.40961272 297.73058538 226.40961272 297.73058538 237.73828125 306.6953125 C240.09481445 308.68989452 241.63293903 310.52115934 243.31640625 313.09375 C243.80496094 313.82335937 244.29351562 314.55296875 244.796875 315.3046875 C249.08551627 323.07706376 249.48190099 332.03770959 247.44140625 340.60546875 C244.14363489 349.57815499 238.90100862 355.29603403 230.28333092 359.44755173 C220.89179961 362.82810051 209.75308768 361.52594069 199.94067383 361.46337891 C197.27369625 361.46823936 194.60681855 361.47545081 191.93986511 361.48550415 C185.46926677 361.5044001 178.99911714 361.49135272 172.52855233 361.46697827 C164.98458857 361.43962694 157.44072958 361.4430236 149.89672884 361.44724493 C136.43342087 361.45361266 122.97032512 361.4303564 109.50708008 361.39111328 C96.45786074 361.35308727 83.40888992 361.33894557 70.35961914 361.35009766 C56.12791424 361.3622244 41.89631836 361.36184048 27.66462249 361.33912599 C26.14609667 361.33671155 24.62757085 361.33429958 23.10904503 361.33189011 C22.3620133 361.33068303 21.61498157 361.32947595 20.84531251 361.3282323 C15.59252396 361.32048863 10.33977613 361.32125544 5.08698463 361.3250618 C-1.31607727 361.32931417 -7.71892208 361.31879335 -14.12192293 361.28983469 C-17.38594038 361.27538896 -20.64957967 361.26930927 -23.91363144 361.27632141 C-27.45722929 361.28277873 -30.99988023 361.26456885 -34.54338074 361.24014282 C-35.56731766 361.24770147 -36.59125459 361.25526012 -37.64621991 361.26304781 C-46.31007061 361.15755906 -53.81404902 358.66398934 -60.23046875 352.65234375 C-66.73330036 344.98829221 -68.75941743 337.21289069 -68.33203125 327.28125 C-67.04063269 317.30027129 -62.59069259 310.64379865 -54.74609375 304.46875 C-51.01804678 301.48235694 -47.39741851 298.440887 -43.87109375 295.21875 C-39.64826815 291.37438519 -35.28464802 287.75349466 -30.84765625 284.16015625 C-26.9141145 280.93382607 -23.0599255 277.61993871 -19.20410156 274.30151367 C-14.74665464 270.46585269 -10.26482945 266.66050501 -5.77050781 262.86816406 C-1.74287489 259.46580344 2.25765043 256.03286954 6.25390625 252.59375 C10.31515435 249.10055518 14.40409404 245.65426449 18.56640625 242.28125 C22.95413489 238.71823394 27.24070381 235.05365468 31.50390625 231.34375 C36.29604199 227.17355938 41.09666508 223.01530284 45.94140625 218.90625 C46.89660156 218.09542969 47.85179687 217.28460938 48.8359375 216.44921875 C51.6343059 214.10524372 54.48257972 211.82623239 57.3347168 209.5480957 C58.2331279 208.83023392 59.131539 208.11237213 60.05717468 207.37275696 C61.08268181 206.55402351 61.08268181 206.55402351 62.12890625 205.71875 C61.13442443 205.71378478 61.13442443 205.71378478 60.11985207 205.70871925 C44.00448771 205.62757773 27.8892268 205.53551464 11.77399635 205.43122292 C3.98086138 205.38105339 -3.81226284 205.33461109 -11.60546875 205.296875 C-18.39625874 205.26398341 -25.18696636 205.2241681 -31.97766554 205.17595994 C-35.57489342 205.15066659 -39.17206646 205.12889385 -42.76935959 205.11540604 C-46.78044264 205.10023724 -50.79126216 205.06961414 -54.80224609 205.03759766 C-56.60082817 205.03435738 -56.60082817 205.03435738 -58.43574524 205.03105164 C-59.52392044 205.01988815 -60.61209564 205.00872467 -61.73324585 204.9972229 C-63.15741601 204.98892676 -63.15741601 204.98892676 -64.61035728 204.98046303 C-66.87109375 204.71875 -66.87109375 204.71875 -68.87109375 202.71875 C-69.09814453 199.82958984 -69.09814453 199.82958984 -69.06640625 196.1796875 C-69.05996094 194.87773437 -69.05351563 193.57578125 -69.046875 192.234375 C-69.03016304 190.85416405 -69.01323314 189.47395571 -68.99609375 188.09375 C-68.98606381 186.70573548 -68.97693798 185.31771411 -68.96875 183.9296875 C-68.94511238 180.52586974 -68.91216242 177.12239494 -68.87109375 173.71875 C-70.3080938 173.72874275 -70.3080938 173.72874275 -71.77412415 173.73893738 C-80.79414961 173.79970324 -89.81413364 173.84470082 -98.83431721 173.87418652 C-103.47190685 173.88985494 -108.1093315 173.91111458 -112.74682617 173.94506836 C-117.22071648 173.97762 -121.69444792 173.99559415 -126.16844749 174.00338173 C-127.87692962 174.0089328 -129.58540287 174.0197725 -131.29381752 174.03594017 C-133.68345687 174.05765904 -136.07243633 174.06071931 -138.4621582 174.05932617 C-139.17137924 174.070112 -139.88060028 174.08089783 -140.61131287 174.0920105 C-143.48555894 174.07383087 -145.41088111 174.03914056 -147.80889893 172.36968994 C-150.46118375 168.24731724 -149.33550277 162.00500658 -149.30859375 157.28125 C-149.32857422 156.04052734 -149.34855469 154.79980469 -149.36914062 153.52148438 C-149.36849609 152.32974609 -149.36785156 151.13800781 -149.3671875 149.91015625 C-149.36904053 148.81904541 -149.37089355 147.72793457 -149.37280273 146.60375977 C-148.75780529 143.06730002 -147.71011349 141.85524477 -144.87109375 139.71875 C-141.4795508 139.88025205 -140.28812618 140.30171757 -137.87109375 142.71875 C-137.87109375 149.31875 -137.87109375 155.91875 -137.87109375 162.71875 C-118.40109375 162.38875 -98.93109375 162.05875 -78.87109375 161.71875 C-87.28609375 159.24375 -87.28609375 159.24375 -95.87109375 156.71875 C-106.29982972 151.75669014 -115.09858829 146.13702989 -123.87109375 138.71875 C-124.6084375 138.09613281 -125.34578125 137.47351563 -126.10546875 136.83203125 C-138.63721124 125.27776468 -148.57601305 106.81710288 -151.30859375 90.03125 C-150.87109375 87.71875 -150.87109375 87.71875 -148.74609375 85.34375 C-145.87109375 83.71875 -145.87109375 83.71875 -142.74609375 83.59375 C-139.87109375 84.71875 -139.87109375 84.71875 -138.33203125 87.375 C-136.89624234 90.66119067 -135.73358281 93.93577295 -134.62109375 97.34375 C-131.15048067 107.19447217 -126.40527666 115.64357923 -119.15625 123.1953125 C-117.87109375 124.71875 -117.87109375 124.71875 -117.87109375 126.71875 C-116.97970703 127.12867188 -116.97970703 127.12867188 -116.0703125 127.546875 C-113.94431913 128.67973115 -112.44930589 129.8469107 -110.68359375 131.46875 C-99.69150097 140.98291434 -86.34266492 146.8567726 -71.87109375 148.71875 C-70.97648437 148.85152344 -70.081875 148.98429688 -69.16015625 149.12109375 C-50.12385613 151.39218049 -29.44719915 145.95678773 -14.18359375 134.34375 C-12.73603495 133.14748531 -11.29853964 131.93894422 -9.87109375 130.71875 C-9.10925781 130.10128906 -8.34742188 129.48382813 -7.5625 128.84765625 C7.36908014 116.33333023 16.04007877 96.86633527 18.12890625 77.71875 C19.61637046 55.94535143 12.98740272 34.58912841 -1.265625 17.91796875 C-13.4239147 5.04762694 -30.10524536 -4.8697345 -47.87109375 -7.28125 C-48.80695313 -7.41402344 -49.7428125 -7.54679687 -50.70703125 -7.68359375 C-70.3906925 -9.84636641 -89.37179193 -5.0700655 -105.87109375 5.71875 C-106.78761719 6.46125 -107.70414063 7.20375 -108.6484375 7.96875 C-110.87109375 9.71875 -110.87109375 9.71875 -112.87109375 9.71875 C-112.87109375 10.37875 -112.87109375 11.03875 -112.87109375 11.71875 C-114.31465788 12.90596067 -115.76032512 14.09073799 -117.21826172 15.26025391 C-119.91867443 17.64315871 -121.88991242 20.45912309 -123.93359375 23.40625 C-124.36551025 24.02056885 -124.79742676 24.6348877 -125.24243164 25.26782227 C-129.48761789 31.41793062 -132.67670362 37.83894365 -135.55859375 44.71875 C-136.87109375 47.71875 -136.87109375 47.71875 -138.87109375 49.71875 C-142.44951961 50.1855012 -144.24352703 50.12103636 -147.30859375 48.15625 C-149.55696613 44.64878908 -148.73966014 42.7461121 -147.87109375 38.71875 C-146.82025932 35.9950176 -145.5359888 33.42901888 -144.18359375 30.84375 C-143.82128662 30.13976074 -143.45897949 29.43577148 -143.08569336 28.71044922 C-130.93149944 5.43303342 -111.81689604 -10.45125103 -86.97265625 -18.61328125 C-56.3967111 -27.61758974 -24.46790996 -19.44116928 0 0 Z M182.56640625 15.84375 C168.6161448 30.20717251 161.25318258 50.35162215 160.75390625 70.15625 C161.35141944 93.10075637 170.04464685 113.30285948 186.5 129.42578125 C188.0433733 130.92598758 188.0433733 130.92598758 190.12890625 130.71875 C190.12890625 131.37875 190.12890625 132.03875 190.12890625 132.71875 C208.00782046 146.21291149 229.6662027 152.83177639 251.9309082 149.87548828 C268.00895339 147.32055916 281.93317732 140.44702537 294.12890625 129.71875 C294.89074219 129.05230469 295.65257812 128.38585937 296.4375 127.69921875 C307.45377658 117.40845086 313.66217728 104.89115106 318.12890625 90.71875 C318.39574219 89.8834375 318.66257812 89.048125 318.9375 88.1875 C323.88228751 68.81757374 319.24906689 46.43614072 309.23046875 29.51171875 C296.57941484 10.26110783 278.88568611 -2.56687309 256.17578125 -7.71484375 C228.33123387 -12.89107371 202.98866393 -3.25419746 182.56640625 15.84375 Z M72.31640625 214.40625 C71.09075865 215.48541497 69.8641872 216.56353156 68.63671875 217.640625 C68.04020508 218.16720703 67.44369141 218.69378906 66.82910156 219.23632812 C64.49732351 221.26943501 62.09994497 223.21503968 59.69140625 225.15625 C54.64036557 229.25790271 49.72762229 233.50466011 44.82104492 237.77661133 C39.16491604 242.69875517 33.45131034 247.54939755 27.71728516 252.38037109 C25.03981672 254.63642427 22.36517668 256.89581606 19.69140625 259.15625 C18.89283203 259.83107422 18.89283203 259.83107422 18.078125 260.51953125 C14.6366962 263.43150946 11.21219584 266.36246267 7.79492188 269.30273438 C3.13708699 273.31040256 -1.53413011 277.28716613 -6.30859375 281.15625 C-10.74348692 284.75511029 -15.06677161 288.46607064 -19.37109375 292.21875 C-23.67541589 295.97142936 -27.99870058 299.68238971 -32.43359375 303.28125 C-34.24702999 304.75926871 -36.05944993 306.23853483 -37.87109375 307.71875 C-38.7525708 308.43659668 -38.7525708 308.43659668 -39.65185547 309.16894531 C-41.56758694 310.7371217 -43.47018017 312.32015919 -45.37109375 313.90625 C-45.97123291 314.39359619 -46.57137207 314.88094238 -47.18969727 315.38305664 C-51.51211789 319.02029812 -54.31736219 322.49114352 -55.3046875 328.24609375 C-55.31656465 335.57429461 -53.83629615 339.67118086 -48.62109375 345.03125 C-42.00123396 349.09343669 -34.77457521 349.00744881 -27.24414062 348.97271729 C-26.19756035 348.97583727 -25.15098007 348.97895725 -24.07268524 348.98217177 C-20.57834684 348.99012618 -17.08418333 348.98383802 -13.58984375 348.97753906 C-11.07950743 348.98025005 -8.56917191 348.98381159 -6.05883789 348.98815918 C0.04419728 348.9963267 6.14716808 348.99513875 12.25020409 348.9893339 C17.21181008 348.98481073 22.1734023 348.98420733 27.13500977 348.98638153 C27.84210854 348.986688 28.54920732 348.98699446 29.27773333 348.98731022 C30.71434721 348.98794969 32.15096109 348.98859812 33.58757496 348.9892554 C47.04769144 348.99495373 60.50778064 348.98840861 73.96789265 348.97765467 C85.50855667 348.9687196 97.04918045 348.97027179 108.58984375 348.97949219 C122.00294405 348.99020361 135.41602047 348.99440445 148.82912445 348.98826766 C150.26035054 348.98763059 151.69157664 348.98700184 153.12280273 348.98638153 C153.82692936 348.98607298 154.53105599 348.98576443 155.25651979 348.98544653 C160.21016293 348.9837222 165.16379086 348.98662903 170.11743164 348.99134064 C176.78885888 348.99754683 183.46019854 348.9931062 190.13162231 348.98155212 C192.57935459 348.97890874 195.02709327 348.97966514 197.474823 348.98407745 C200.81728587 348.9895469 204.15950571 348.98268152 207.50195312 348.97271729 C208.4692762 348.97717873 209.43659927 348.98164017 210.43323517 348.98623681 C217.16261655 348.94735862 223.89213189 348.7154787 229.44140625 344.46875 C233.59883333 340.21463857 235.28489576 336.75529869 235.62890625 330.84375 C235.32151031 323.73124384 232.55294879 319.95233206 227.39453125 315.19921875 C224.62561662 312.80383613 221.78691495 310.49859895 218.93896484 308.19824219 C215.90995234 305.72241055 212.96214754 303.1532966 210.00390625 300.59375 C205.94371033 297.09938281 201.85366751 293.6542232 197.69140625 290.28125 C192.5858316 286.13814009 187.63090572 281.8364455 182.67602539 277.51586914 C179.04152774 274.35409162 175.37369782 271.25024794 171.62890625 268.21875 C166.59462353 264.14053284 161.70379917 259.91257942 156.81860352 255.65844727 C152.23774536 251.67158667 147.62140338 247.7305592 142.97753906 243.81738281 C138.96506348 240.43392973 134.98187732 237.01766199 131.00390625 233.59375 C126.03802058 229.32406736 121.01636711 225.13576047 115.921875 221.01953125 C113.85220895 219.31458957 111.82136155 217.58974889 109.8046875 215.82421875 C109.23500244 215.32929932 108.66531738 214.83437988 108.07836914 214.32446289 C106.98135664 213.3686547 105.89021581 212.40604543 104.80639648 211.43530273 C100.37516744 207.58974209 96.04392118 205.15290116 90.19140625 204.28125 C83.01766446 205.30607026 77.55844103 209.67260711 72.31640625 214.40625 Z " fill="#000000" transform="translate(165.87109375,86.28125)"/>
<path d="M0 0 C2.16699219 1.56542969 2.16699219 1.56542969 4 4 C4.45410156 7.39160156 4.45410156 7.39160156 4.390625 11.390625 C4.38496521 12.09523865 4.37930542 12.79985229 4.37347412 13.52581787 C4.35115078 15.76791428 4.30096754 18.00838988 4.25 20.25 C4.22992952 21.77341435 4.2116797 23.29685386 4.1953125 24.8203125 C4.15130118 28.5473983 4.08230372 32.27354087 4 36 C4.98919434 35.98428955 5.97838867 35.9685791 6.99755859 35.95239258 C10.66137577 35.8981654 14.32515737 35.86367664 17.98925781 35.83520508 C19.57623251 35.82010186 21.16316537 35.79961777 22.75 35.77368164 C25.02875073 35.73736405 27.30695058 35.72028977 29.5859375 35.70703125 C30.29744965 35.69154739 31.00896179 35.67606354 31.74203491 35.66011047 C33.74365234 35.65942383 33.74365234 35.65942383 37 36 C39.31332486 39.46998729 39.33957563 40.92509248 39 45 C38.34 45.99 37.68 46.98 37 48 C34.44604513 48.26711404 32.13725626 48.34849029 29.5859375 48.29296875 C28.85629791 48.28872391 28.12665833 48.28447906 27.37490845 48.28010559 C25.04123241 48.26329353 22.7084156 48.22563868 20.375 48.1875 C18.79428329 48.17245634 17.21355307 48.15876738 15.6328125 48.14648438 C11.75487656 48.11338201 7.87758402 48.06158404 4 48 C4.02094727 48.94842773 4.04189453 49.89685547 4.06347656 50.87402344 C4.1317356 54.40016425 4.18183929 57.92560099 4.21972656 61.45214844 C4.23981599 62.97700085 4.26709316 64.50177648 4.30175781 66.02636719 C4.35039796 68.22089598 4.37299396 70.41440469 4.390625 72.609375 C4.41157227 73.92905273 4.43251953 75.24873047 4.45410156 76.60839844 C4 80 4 80 2.16699219 82.43457031 C-0.74724332 84.53980669 -2.48264034 84.52386208 -6 84 C-7.6652832 82.94213867 -7.6652832 82.94213867 -9 81 C-9.26153069 78.41225229 -9.34958438 76.07100347 -9.29296875 73.48828125 C-9.28872391 72.76005661 -9.28447906 72.03183197 -9.28010559 71.28153992 C-9.26332733 68.95814873 -9.22567855 66.6356285 -9.1875 64.3125 C-9.17245197 62.73634066 -9.15876377 61.16016771 -9.14648438 59.58398438 C-9.11342685 55.72232123 -9.06165194 51.86130822 -9 48 C-9.98395752 48.02094727 -10.96791504 48.04189453 -11.98168945 48.06347656 C-15.63242031 48.13587842 -19.28308775 48.1817995 -22.93432617 48.21972656 C-24.51451285 48.23984186 -26.09462509 48.26713804 -27.67456055 48.30175781 C-29.94598748 48.35028343 -32.21643058 48.37296809 -34.48828125 48.390625 C-35.19463211 48.41127014 -35.90098297 48.43191528 -36.6287384 48.45318604 C-39.86431493 48.45466614 -41.55503432 48.41080504 -43.98120117 46.17089844 C-45.41739879 43.11058949 -44.90394854 41.19858713 -44 38 C-42 36 -42 36 -38.74365234 35.77294922 C-37.35770705 35.77326618 -35.97173699 35.78458241 -34.5859375 35.8046875 C-33.85629791 35.8075174 -33.12665833 35.81034729 -32.37490845 35.81326294 C-30.04143972 35.82446998 -27.70835297 35.8495749 -25.375 35.875 C-23.79427637 35.88502915 -22.21354673 35.89415511 -20.6328125 35.90234375 C-16.75506086 35.92441095 -12.87759522 35.95894385 -9 36 C-9.01571045 35.01604248 -9.0314209 34.03208496 -9.04760742 33.01831055 C-9.10190978 29.36751492 -9.13635085 25.71675499 -9.16479492 22.06567383 C-9.17988094 20.48553464 -9.2003525 18.90543731 -9.22631836 17.32543945 C-9.26271126 15.05409415 -9.27972762 12.78330241 -9.29296875 10.51171875 C-9.30845261 9.80536789 -9.32393646 9.09901703 -9.33988953 8.3712616 C-9.34088455 5.47102275 -9.33625417 3.48928149 -7.6652832 1.05786133 C-5.00107933 -0.63455846 -3.07264787 -0.4389497 0 0 Z " fill="#000000" transform="translate(108,115)"/>
<path d="M0 0 C2.55591873 -0.30777724 4.87190123 -0.41990561 7.43139648 -0.40405273 C8.19740173 -0.41091599 8.96340698 -0.41777924 9.75262451 -0.42485046 C12.29230124 -0.44319653 14.83136478 -0.43926991 17.37109375 -0.43359375 C19.13224999 -0.43815201 20.89340443 -0.44345651 22.65455627 -0.44947815 C26.34928605 -0.45842472 30.04379987 -0.45596887 33.73852539 -0.44604492 C38.47805375 -0.43455651 43.21683694 -0.45475657 47.95626736 -0.48396206 C51.5945155 -0.50229175 55.23258406 -0.50203804 58.87086678 -0.49632454 C60.6184093 -0.49617091 62.36596368 -0.50224954 64.11346245 -0.51461601 C66.55585582 -0.52946285 68.99685968 -0.51889667 71.43920898 -0.50170898 C72.16398941 -0.51137695 72.88876984 -0.52104492 73.63551331 -0.53100586 C76.86475421 -0.48331953 78.56690266 -0.40074517 80.98426819 1.83604431 C82.41863172 4.89186977 81.90253381 6.80641882 81 10 C78.53294064 12.46705936 77.12767814 12.24626326 73.75993347 12.28216553 C72.66736992 12.2784494 72.66736992 12.2784494 71.55273438 12.2746582 C70.40131706 12.2823246 70.40131706 12.2823246 69.22663879 12.29014587 C66.68226384 12.30407774 64.13815862 12.30308261 61.59375 12.30078125 C59.83019916 12.30466589 58.06664926 12.30900007 56.30310059 12.31376648 C52.60421721 12.32123619 48.90542927 12.32093176 45.20654297 12.31567383 C40.45807776 12.3098747 35.71000203 12.32681712 30.96160126 12.3500185 C27.31912946 12.36472341 23.6767522 12.36563205 20.03425598 12.36250877 C18.28309863 12.36302351 16.53193619 12.36828962 14.7808075 12.37832069 C12.3360331 12.39060692 9.89202698 12.38394143 7.44726562 12.37231445 C6.35470207 12.38378006 6.35470207 12.38378006 5.24006653 12.39547729 C3.22619629 12.3742218 3.22619629 12.3742218 0 12 C-2.31332486 8.53001271 -2.33957563 7.07490752 -2 3 C-1.34 2.01 -0.68 1.02 0 0 Z " fill="#000000" transform="translate(367,151)"/>
<path d="M0 0 C3.375 0.875 3.375 0.875 5.375 2.875 C5.6278288 5.38564876 5.74524359 7.73861315 5.75 10.25 C5.77449219 10.92289063 5.79898437 11.59578125 5.82421875 12.2890625 C5.84441757 15.70939663 5.61332786 17.55638259 3.54296875 20.32421875 C0.62645426 22.41044623 -1.11584611 22.39763994 -4.625 21.875 C-6.28125 20.8125 -6.28125 20.8125 -7.625 18.875 C-7.95132361 16.29086978 -8.08969974 14.01652951 -8.0625 11.4375 C-8.08183594 10.11878906 -8.10117188 8.80007812 -8.12109375 7.44140625 C-7.625 3.875 -7.625 3.875 -5.82421875 1.39453125 C-3.625 -0.125 -3.625 -0.125 0 0 Z " fill="#000000" transform="translate(20.625,142.125)"/>
</svg>
