<?xml version="1.0" encoding="UTF-8"?>
<svg version="1.1" xmlns="http://www.w3.org/2000/svg" width="512" height="512">
<path d="M0 0 C1.19218517 0.0269759 2.38437035 0.0539518 3.61268234 0.08174515 C20.973482 0.47564852 38.31947883 1.07254351 55.6640625 1.921875 C56.73926604 1.97437314 57.81446958 2.02687128 58.92225504 2.08096027 C65.09080053 2.38968581 71.25498774 2.73957943 77.41782475 3.14695644 C79.27071853 3.26746135 81.12413568 3.38022929 82.97802258 3.48434544 C95.42551268 4.20292647 106.36623357 5.68721661 115.4375 15.1875 C120.64564949 21.8275738 122.50288249 28.70714784 122.49525452 37.09028625 C122.49731651 38.84232613 122.49731651 38.84232613 122.49942017 40.62976074 C122.49582489 41.90218628 122.49222961 43.17461182 122.48852539 44.4855957 C122.48824316 45.84592181 122.48840195 47.20624808 122.4889679 48.5665741 C122.48925448 52.25212428 122.48338016 55.93764183 122.47639394 59.62318444 C122.47013732 63.47756296 122.46955477 67.33194226 122.46836853 71.18632507 C122.46526202 78.48185503 122.4570578 85.77736997 122.44701904 93.07289332 C122.43583678 101.37998337 122.43034213 109.68707413 122.42532361 117.99416983 C122.41487463 135.07945523 122.39728835 152.16472603 122.375 169.25 C122.98548691 169.24483368 123.59597382 169.23966736 124.22496033 169.23434448 C125.43219505 169.22831711 125.43219505 169.22831711 126.66381836 169.22216797 C127.45993027 169.21700165 128.25604218 169.21183533 129.07627869 169.20651245 C152.63653631 169.65222888 174.86322671 184.04884219 191.09375 199.90625 C210.35989791 220.12381262 219.07328285 245.56068657 218.77758789 273.20092773 C218.05079564 300.03459193 206.89814198 324.39945621 187.625 343.0703125 C187.2125 343.45960938 186.8 343.84890625 186.375 344.25 C188.16539344 349.36094871 190.9246138 353.89417538 193.625 358.5625 C194.15440186 359.48329346 194.68380371 360.40408691 195.22924805 361.3527832 C199.76718115 369.23208658 204.35130229 377.08453843 208.93920898 384.93481445 C215.80065518 396.67806336 222.60171133 408.45571625 229.375 420.25 C229.87531738 421.11850586 230.37563477 421.98701172 230.89111328 422.88183594 C232.18268554 425.12659304 233.46775408 427.37490628 234.75 429.625 C235.29491089 430.56956055 235.29491089 430.56956055 235.85083008 431.53320312 C238.97763836 437.05684363 240.16180862 441.87685018 239.375 448.25 C237.24670618 455.82723883 233.12127874 460.29878822 226.546875 464.38671875 C221.22515433 466.502007 214.4327266 466.03048595 208.95703125 464.6328125 C199.96360675 460.70145092 195.61139188 450.45726755 191.125 442.3125 C189.97251551 440.24674749 188.81886184 438.18164685 187.6640625 436.1171875 C187.10235352 435.11139648 186.54064453 434.10560547 185.96191406 433.06933594 C183.8567138 429.32920476 181.69055831 425.62809949 179.5 421.9375 C175.25951448 414.78030632 171.09083018 407.58310453 166.9375 400.375 C166.29941406 399.26801758 165.66132813 398.16103516 165.00390625 397.02050781 C162.54997623 392.76243842 160.09680215 388.50393515 157.64501953 384.24462891 C156.0980919 381.5581021 154.54926257 378.87268075 153 376.1875 C152.31272827 374.99181396 152.31272827 374.99181396 151.61157227 373.77197266 C149.76897837 370.31019606 149.76897837 370.31019606 147.375 367.25 C145.612405 367.65722022 143.86459207 368.12862425 142.125 368.625 C135.54988811 370.35570854 129.14217165 370.89307904 122.375 371.25 C122.39071045 371.99048584 122.4064209 372.73097168 122.42260742 373.49389648 C122.48547539 376.89168473 122.52415441 380.28935004 122.5625 383.6875 C122.60020508 385.43450195 122.60020508 385.43450195 122.63867188 387.21679688 C122.72792996 397.77900373 121.08802173 406.07668742 113.7265625 414.03125 C105.58319467 421.8754737 96.15131044 423.85779207 85.14172363 423.75793457 C84.06611191 423.76417453 82.99050019 423.7704145 81.88229418 423.77684355 C78.30736874 423.79269457 74.73313263 423.78019976 71.15820312 423.76757812 C68.58332423 423.77300272 66.00844844 423.78012727 63.43357849 423.78881836 C57.18352106 423.80654171 50.9336565 423.80279139 44.68359172 423.7911678 C39.60098056 423.78210925 34.5184232 423.7809199 29.43580627 423.78526306 C28.34792578 423.78618246 28.34792578 423.78618246 27.2380679 423.78712043 C25.7644168 423.78839942 24.29076572 423.78969628 22.81711465 423.7910108 C9.02065368 423.80239847 -4.77570072 423.78933143 -18.57214421 423.76780933 C-30.39271328 423.74993997 -42.21312518 423.75304459 -54.03369141 423.77148438 C-67.7830649 423.79292321 -81.53234516 423.8013 -95.28173304 423.78903532 C-96.74975743 423.78776121 -98.21778185 423.78650373 -99.68580627 423.78526306 C-100.40797458 423.78464596 -101.13014288 423.78402886 -101.87419507 423.78339306 C-106.94670613 423.77994918 -112.0191577 423.78574766 -117.09165955 423.79518127 C-123.92737063 423.80761541 -130.76278099 423.79867708 -137.59846306 423.77560425 C-140.10298611 423.77032787 -142.60753419 423.77181248 -145.1120472 423.78065491 C-148.53893912 423.79163582 -151.96489108 423.77781471 -155.39172363 423.75793457 C-156.86738588 423.7713189 -156.86738588 423.7713189 -158.37285948 423.78497362 C-168.21802744 423.67469739 -176.73299413 421.01023106 -183.90625 414.1015625 C-192.20775737 405.15857501 -192.92338223 396.63198329 -192.91261292 384.72485352 C-192.91926073 383.47409562 -192.92590854 382.22333773 -192.93275779 380.93467808 C-192.9507413 377.47930445 -192.9563415 374.0240072 -192.95974457 370.56859255 C-192.96552399 366.83573122 -192.98265137 363.10291819 -192.99809265 359.37008667 C-193.03275989 350.36776086 -193.04841674 341.36543938 -193.06221595 332.36306143 C-193.06918635 328.12030343 -193.07834086 323.87755027 -193.08732414 319.63479614 C-193.11651031 305.52824139 -193.14130891 291.42169134 -193.15194798 277.31510925 C-193.15263867 276.41331367 -193.15332936 275.51151809 -193.15404099 274.58239537 C-193.154733 273.67848977 -193.15542502 272.77458416 -193.156138 271.84328747 C-193.15754998 270.01173591 -193.15897079 268.18018436 -193.16040039 266.34863281 C-193.16110556 265.44012719 -193.16181073 264.53162156 -193.16253727 263.59558547 C-193.17479618 248.86416363 -193.21761693 234.13299863 -193.27334059 219.40168345 C-193.33011993 204.26825804 -193.3605977 189.13496259 -193.36496013 174.00142956 C-193.36804139 165.50788975 -193.38253084 157.01470748 -193.42624092 148.52127075 C-193.46334178 141.2920393 -193.47652339 134.06326233 -193.45853604 126.83394933 C-193.45008379 123.14656757 -193.45291257 119.46011391 -193.48635483 115.77285385 C-193.52231167 111.77295764 -193.5038802 107.77513392 -193.48023987 103.77514648 C-193.49926552 102.613276 -193.51829117 101.45140551 -193.53789335 100.25432682 C-193.45755102 94.55112515 -193.06573687 91.07814616 -189.22217464 86.71237946 C-188.60816451 86.12841479 -187.99415438 85.54445012 -187.36153787 84.94278955 C-184.48997152 82.14356611 -182.84946528 78.67887939 -180.95507812 75.18164062 C-137.95134512 -0.328268 -79.88797321 -1.93715234 0 0 Z M-98.625 15.25 C-98.63379936 16.32875648 -98.63379936 16.32875648 -98.64277649 17.42930603 C-98.70092273 24.24027693 -98.77312326 31.05097314 -98.86071491 37.86162472 C-98.90525108 41.3622344 -98.94454269 44.86273219 -98.97143555 48.36352539 C-99.00266317 52.39758877 -99.05744401 56.43104536 -99.11328125 60.46484375 C-99.11967117 61.70894516 -99.1260611 62.95304657 -99.13264465 64.23484802 C-99.31909032 75.35466497 -101.23275883 83.85775883 -109.3125 91.9375 C-117.11028366 97.95424955 -126.41114399 97.71489759 -135.84765625 97.76171875 C-137.20244439 97.77859692 -138.55721717 97.79675129 -139.91197205 97.81611633 C-143.4480204 97.86328283 -146.98400646 97.89330625 -150.52026367 97.91955566 C-154.14058733 97.94953131 -157.76069699 97.99600238 -161.38085938 98.04101562 C-168.46211641 98.12666807 -175.54343974 98.19418083 -182.625 98.25 C-182.67078 135.69507633 -182.70602051 173.14014844 -182.72713066 210.5852471 C-182.72963207 215.00621296 -182.73222071 219.42717876 -182.73486328 223.84814453 C-182.7353879 224.72827741 -182.73591252 225.60841028 -182.73645304 226.51521385 C-182.74515511 240.76527547 -182.760924 255.01532095 -182.77930559 269.26537299 C-182.79801014 283.88777108 -182.8091179 298.51016071 -182.81317699 313.13257027 C-182.81592089 322.15500784 -182.82458666 331.17739979 -182.84083293 340.19982332 C-182.85140666 346.38724641 -182.85459974 352.57464592 -182.85200275 358.76207739 C-182.85072207 362.33161945 -182.85268228 365.90108179 -182.86341095 369.47060966 C-182.87496565 373.34331019 -182.87097167 377.21590717 -182.86550903 381.08862305 C-182.87133472 382.21315006 -182.8771604 383.33767708 -182.88316262 384.49628067 C-182.85077209 392.98439478 -182.32900291 400.49525971 -176.625 407.25 C-171.33873479 411.2745229 -166.79222628 413.37076213 -160.1102562 413.38142776 C-159.20502614 413.38526891 -158.29979608 413.38911005 -157.36713481 413.3930676 C-156.37648752 413.39220112 -155.38584024 413.39133463 -154.36517334 413.39044189 C-153.30976011 413.39341302 -152.25434687 413.39638414 -151.16695142 413.3994453 C-147.61877996 413.4081397 -144.07064221 413.40964118 -140.52246094 413.41113281 C-137.98315865 413.41576045 -135.44385705 413.42078504 -132.90455627 413.42617798 C-125.99745121 413.43930899 -119.09035727 413.44578497 -112.18324184 413.45018864 C-107.86944646 413.45295225 -103.55565331 413.45718983 -99.24185944 413.46169281 C-87.2954917 413.47388466 -75.34912575 413.48418409 -63.40275192 413.4875679 C-62.63829359 413.48778747 -61.87383526 413.48800703 -61.08621152 413.48823325 C-60.31993606 413.48845153 -59.55366061 413.48866981 -58.76416469 413.4888947 C-57.2114288 413.48933817 -55.65869292 413.48978473 -54.10595703 413.49023438 C-53.33574829 413.4904558 -52.56553956 413.49067723 -51.77199116 413.49090537 C-39.29399367 413.49485275 -26.81605459 413.51230528 -14.33807966 413.5355939 C-1.52357145 413.55931733 11.29090747 413.57177021 24.10543799 413.57293582 C31.29888322 413.57385203 38.49225233 413.57959072 45.68567657 413.59775543 C52.45227891 413.61478226 59.21871219 413.61640163 65.98533821 413.60761642 C68.46854857 413.60684495 70.95176664 413.61120327 73.4349575 413.62107468 C76.82589054 413.63376379 80.21630937 413.62793338 83.60723877 413.61749268 C84.58896317 413.62554908 85.57068757 413.63360548 86.58216119 413.64190602 C94.57391131 413.58439087 101.50640442 412.11859558 107.375 406.25 C111.35625138 400.61437727 112.51064266 395.53003679 112.47265625 388.73046875 C112.46782227 387.1980957 112.46782227 387.1980957 112.46289062 385.63476562 C112.45451172 384.57966797 112.44613281 383.52457031 112.4375 382.4375 C112.43073242 380.82584961 112.43073242 380.82584961 112.42382812 379.18164062 C112.41207729 376.53770317 112.39564787 373.89388048 112.375 371.25 C111.17746094 371.09144531 109.97992188 370.93289063 108.74609375 370.76953125 C79.95383407 366.73831761 54.83649002 354.41219409 36.5390625 331.265625 C25.08690919 315.30702868 17.11050924 296.04745709 16.375 276.25 C16.3234375 275.23164063 16.271875 274.21328125 16.21875 273.1640625 C15.52824848 248.01829881 23.78895181 223.29932267 40.375 204.25 C41.99949243 202.54220027 43.66720027 200.87449243 45.375 199.25 C45.9009375 198.66863281 46.426875 198.08726562 46.96875 197.48828125 C61.5153683 181.80135601 83.90914201 172.55769016 104.81640625 170.14453125 C105.54766724 170.05675415 106.27892822 169.96897705 107.03234863 169.87854004 C108.81279626 169.66535199 110.59383965 169.45714899 112.375 169.25 C112.4217878 151.93401572 112.45702202 134.61805126 112.47862434 117.30201817 C112.48892272 109.26130112 112.50295547 101.22062342 112.52587891 93.17993164 C112.54585692 86.16902496 112.55872689 79.1581468 112.56317699 72.14721245 C112.56577692 68.43738044 112.5718577 64.72762997 112.58646011 61.01782417 C112.60265569 56.86934974 112.60297686 52.72101574 112.60205078 48.57250977 C112.60924133 47.35186829 112.61643188 46.13122681 112.62384033 44.87359619 C112.75155338 32.49865443 112.75155338 32.49865443 107.1875 21.875 C106.36185547 20.93527344 106.36185547 20.93527344 105.51953125 19.9765625 C100.15389926 15.6566912 94.85524102 14.80964443 88.13026428 14.88923645 C87.3279906 14.88667318 86.52571691 14.8841099 85.69913191 14.88146895 C83.02585704 14.8765495 80.35315399 14.89299331 77.67993164 14.90942383 C75.75774143 14.9102705 73.83555025 14.90979418 71.9133606 14.90809631 C66.70517819 14.9072365 61.49720358 14.92486015 56.28906941 14.94581819 C50.84249888 14.9645872 45.39592345 14.96633561 39.94932556 14.96989441 C29.63992472 14.9792142 19.33061946 15.00382714 9.02126068 15.03394288 C-2.71747984 15.06748889 -14.45622495 15.08397342 -26.19500148 15.09902918 C-50.33838728 15.13037671 -74.48168828 15.18313599 -98.625 15.25 Z M-114.8109436 27.30041504 C-115.40579559 27.89729126 -116.00064758 28.49416748 -116.61352539 29.10913086 C-117.23789993 29.73175308 -117.86227448 30.35437531 -118.50556946 30.99586487 C-120.58046489 33.06633859 -122.65165718 35.1404732 -124.72265625 37.21484375 C-126.15597616 38.64749072 -127.58944455 40.07998916 -129.02305603 41.51234436 C-132.03173206 44.51954298 -135.0385838 47.52855108 -138.04418945 50.53881836 C-141.90706183 54.40738803 -145.77440488 58.27145232 -149.64312077 62.13417721 C-152.60533541 65.09278739 -155.56517522 68.05376411 -158.52429008 71.01547432 C-159.94978742 72.44164125 -161.37603485 73.86705883 -162.8030262 75.29173088 C-164.79306319 77.27924324 -166.77989129 79.26990739 -168.76586914 81.26147461 C-169.36274536 81.8563266 -169.95962158 82.45117859 -170.57458496 83.0640564 C-173.34316956 85.29390294 -173.34316956 85.29390294 -174.625 88.25 C-167.5084256 88.35176424 -160.3920402 88.42161829 -153.27490234 88.46972656 C-150.8558857 88.48979065 -148.43691724 88.51704843 -146.01806641 88.55175781 C-142.53275632 88.60050341 -139.04808984 88.62302164 -135.5625 88.640625 C-134.48822754 88.66127014 -133.41395508 88.68191528 -132.30712891 88.70318604 C-125.21043912 88.70528714 -119.31736182 87.85640192 -114.0703125 82.73150635 C-110.60491782 78.70552412 -109.49912911 76.36751677 -109.51147461 71.15771484 C-109.51155014 70.09676605 -109.51162567 69.03581726 -109.51170349 67.94271851 C-109.51944542 66.21923691 -109.51944542 66.21923691 -109.52734375 64.4609375 C-109.5287587 63.28737701 -109.53017365 62.11381653 -109.53163147 60.9046936 C-109.53724311 57.14477015 -109.54979762 53.38490555 -109.5625 49.625 C-109.5675135 47.08073002 -109.57207667 44.53645912 -109.57617188 41.9921875 C-109.58721632 35.74477147 -109.60396582 29.49738994 -109.625 23.25 C-111.84581084 23.25 -113.31638328 25.81366088 -114.8109436 27.30041504 Z M51.51953125 206.015625 C31.71204327 226.99178474 25.56383153 251.19166002 26.24316406 279.29589844 C27.21153534 300.99458808 38.60236618 320.10253816 53.375 335.25 C53.97054687 335.91902344 54.56609375 336.58804688 55.1796875 337.27734375 C67.9373158 351.27265241 90.58146811 360.04642517 109.33374023 361.39038086 C121.53411074 361.94576156 132.64435888 360.59138302 144.375 357.25 C145.89867187 356.816875 145.89867187 356.816875 147.453125 356.375 C158.89161582 352.62906149 170.76844196 345.69791181 179.375 337.25 C179.375 336.59 179.375 335.93 179.375 335.25 C179.92671875 335.04632813 180.4784375 334.84265625 181.046875 334.6328125 C195.05652619 326.31164384 202.40804574 304.98703209 206.46484375 290.1875 C212.33752892 266.48555386 206.89059011 242.13689016 194.48046875 221.54296875 C191.44326765 216.79276368 188.11571668 212.4638508 184.375 208.25 C183.48941406 207.24066406 183.48941406 207.24066406 182.5859375 206.2109375 C166.65562803 189.19601121 143.49582442 179.18641229 120.3203125 178.21875 C93.88573357 178.4281328 70.57098013 187.56360611 51.51953125 206.015625 Z M175.375 352.25 C173.29717227 353.31986244 173.29717227 353.31986244 171.1875 354.9375 C167.05969645 357.84049627 162.93381604 360.09492332 158.375 362.25 C159.6080105 366.26844342 161.06435768 369.73737342 163.2109375 373.34765625 C163.77425781 374.30285156 164.33757812 375.25804687 164.91796875 376.2421875 C165.82482422 377.76199219 165.82482422 377.76199219 166.75 379.3125 C168.02947108 381.47998181 169.30810272 383.64795935 170.5859375 385.81640625 C171.2262793 386.90066895 171.86662109 387.98493164 172.52636719 389.10205078 C175.18417167 393.62790009 177.78274986 398.18639006 180.375 402.75 C186.43490135 413.39125606 192.58937048 423.97585932 198.79003906 434.53564453 C200.23725812 437.01410748 201.66511513 439.50243824 203.0859375 441.99609375 C203.86957626 443.35168704 204.65341272 444.70716608 205.4375 446.0625 C206.08847656 447.20332031 206.73945313 448.34414063 207.41015625 449.51953125 C209.51328977 452.44217605 211.1294067 453.7453183 214.375 455.25 C218.89373318 455.90727028 220.78350147 455.61829154 224.6875 453.1875 C227.79842877 449.7871825 228.82350962 447.8194917 229.375 443.25 C227.00049632 436.58043819 223.28754731 430.51984419 219.8125 424.375 C219.18408203 423.25875244 218.55566406 422.14250488 217.90820312 420.99243164 C213.68343446 413.50900266 209.3863163 406.0732257 205 398.68359375 C202.37662772 394.26382631 199.78742166 389.82444483 197.20043945 385.38330078 C195.99209054 383.30921358 194.78231256 381.23595823 193.57104492 379.16357422 C190.81356854 374.44523416 188.06758574 369.72170084 185.36328125 364.97265625 C184.90759766 364.17923828 184.45191406 363.38582031 183.98242188 362.56835938 C183.14173139 361.10380807 182.30796921 359.63524976 181.48242188 358.16210938 C179.31641755 354.20683585 179.31641755 354.20683585 175.375 352.25 Z " fill="#000000" transform="translate(232.625,20.75)"/>
<path d="M0 0 C2.69086286 2.15710757 5.25415874 4.39360195 7.79296875 6.7265625 C8.41171875 7.2421875 9.03046875 7.7578125 9.66796875 8.2890625 C22.64545782 19.82460834 30.15632991 38.78389287 31.79296875 55.7265625 C32.97370134 78.81365297 26.40232389 97.94469454 12.2734375 116.1796875 C11.78488281 116.69015625 11.29632813 117.200625 10.79296875 117.7265625 C10.13296875 117.7265625 9.47296875 117.7265625 8.79296875 117.7265625 C8.79296875 118.3865625 8.79296875 119.0465625 8.79296875 119.7265625 C-7.25553877 135.17147571 -28.36806228 142.35361395 -50.3515625 141.97265625 C-71.65410551 140.61291946 -90.47671922 131.72009029 -105.1171875 116.26171875 C-112.15727702 107.721498 -117.66481219 98.22820019 -121.20703125 87.7265625 C-121.52542969 86.79328125 -121.84382813 85.86 -122.171875 84.8984375 C-127.97199818 64.47772733 -124.71794948 42.04311899 -114.59765625 23.62109375 C-104.05585755 5.73481855 -87.02450908 -6.38866987 -67.39453125 -12.7109375 C-44.01597007 -18.35403847 -19.57124304 -13.87388971 0 0 Z M-100.2578125 20.9765625 C-111.21520628 36.43549079 -116.60511947 54.92434767 -113.90673828 73.83056641 C-111.4597355 87.05685024 -106.09749606 98.60131091 -97.20703125 108.7265625 C-96.33304687 109.74169922 -96.33304687 109.74169922 -95.44140625 110.77734375 C-85.53185465 121.4988124 -71.59971413 128.67046495 -57.20703125 130.7265625 C-55.81677734 130.92958984 -55.81677734 130.92958984 -54.3984375 131.13671875 C-34.40397164 133.44683632 -17.8200718 126.61574594 -2.05078125 115.16015625 C6.68837261 108.18869487 12.37109875 98.84557535 16.79296875 88.7265625 C17.11136719 88.01242187 17.42976562 87.29828125 17.7578125 86.5625 C24.44659024 69.32475438 22.03815793 50.28986999 14.79296875 33.7265625 C6.53449374 16.84950456 -8.19833245 4.86414908 -25.63671875 -1.53125 C-53.12926286 -9.98594636 -81.56746133 -0.86044009 -100.2578125 20.9765625 Z " fill="#000000" transform="translate(396.20703125,227.2734375)"/>
<path d="M0 0 C0.89940103 0.00446144 1.79880206 0.00892289 2.72545767 0.01351953 C3.67722309 0.01039954 4.6289885 0.00727956 5.6095953 0.00406504 C8.81872878 -0.00395203 12.02767511 0.00242309 15.23681021 0.00869775 C17.52939862 0.00598953 19.82198617 0.00242956 22.11457205 -0.00192237 C28.35614595 -0.01106879 34.597654 -0.00749285 40.83922911 -0.0011642 C47.35794778 0.00388416 53.87666066 -0.0007924 60.39537954 -0.00393653 C72.04650452 -0.00781322 83.69759932 -0.00158106 95.34871954 0.00858214 C105.92031805 0.01751808 116.49187264 0.01596617 127.06347036 0.00674462 C139.32942614 -0.00394984 151.59535062 -0.00794701 163.86131096 -0.00203085 C170.35816678 0.00109417 176.85499232 0.00148366 183.35184622 -0.00510383 C189.45848189 -0.01086266 195.56503427 -0.00690729 201.6716609 0.00468469 C203.91872599 0.00733913 206.16579803 0.00655292 208.41286039 0.00215936 C211.46873432 -0.00326672 214.52433755 0.00350213 217.580194 0.01351953 C218.47959503 0.00905808 219.37899606 0.00459664 220.30565166 0 C226.42452584 0.03918682 226.42452584 0.03918682 228.65282583 2.26748681 C228.96532583 4.70498681 228.96532583 4.70498681 228.65282583 7.26748681 C227.38131809 8.90404785 227.38131809 8.90404785 225.65282583 10.26748681 C222.54965058 10.5627011 219.64713333 10.67183358 216.54259634 10.64843774 C215.59884917 10.65311771 214.655102 10.65779768 213.68275642 10.66261947 C210.50662282 10.67462714 207.3309161 10.66508965 204.15477896 10.6556704 C201.8833683 10.65973354 199.61195963 10.66507396 197.34055471 10.67160058 C191.16092692 10.68531067 184.98144889 10.67996027 178.80181837 10.67046332 C172.34496411 10.66288584 165.88812296 10.669907 159.43126822 10.67462182 C147.89133252 10.68043522 136.35147363 10.67109249 124.81154996 10.65584381 C114.34373175 10.64244013 103.87601334 10.64476808 93.40819693 10.65860009 C81.25867368 10.67464672 69.10922878 10.68063493 56.95969296 10.6717633 C50.52596371 10.66707804 44.09230326 10.66648533 37.6585784 10.67637277 C31.61098312 10.68501703 25.56357695 10.67906702 19.51600218 10.66169 C17.29193388 10.65771155 15.06784975 10.65888225 12.84378767 10.66547799 C9.81665952 10.67362995 6.79014403 10.66344885 3.76305532 10.64843774 C2.43101907 10.65847599 2.43101907 10.65847599 1.07207298 10.66871703 C-4.91189604 10.61083527 -4.91189604 10.61083527 -7.07566643 8.90404785 C-8.34717417 7.26748681 -8.34717417 7.26748681 -8.65967417 4.70498681 C-7.97911516 -0.60337341 -4.55586114 0.02917689 0 0 Z " fill="#000000" transform="translate(87.34717416763306,171.7325131893158)"/>
<path d="M0 0 C0.735486 -0.0060911 1.470972 -0.01218221 2.22874546 -0.01845789 C4.70009734 -0.03514412 7.17093716 -0.03030425 9.64233398 -0.0255127 C11.41129087 -0.03284971 13.18024296 -0.04143486 14.94918823 -0.05117798 C19.75901819 -0.07343961 24.56867708 -0.07632241 29.37855148 -0.07443047 C33.3897546 -0.074311 37.40092116 -0.08286529 41.41211414 -0.09120798 C50.87201679 -0.11045818 60.33183118 -0.11331972 69.79174805 -0.10656738 C79.56157453 -0.09992241 89.33102385 -0.12280558 99.10077381 -0.15988111 C107.48045187 -0.1905314 115.8600083 -0.20194332 124.23974133 -0.1980443 C129.2483321 -0.19597224 134.25662937 -0.20152638 139.26516724 -0.22593689 C143.97339087 -0.24812498 148.6809991 -0.24639286 153.38922501 -0.22600937 C155.11985879 -0.22258536 156.85053337 -0.22774789 158.58111191 -0.24199295 C160.93875348 -0.26006479 163.29428019 -0.24752993 165.65185547 -0.22705078 C166.34144128 -0.23956863 167.03102709 -0.25208648 167.74150944 -0.26498365 C169.65403748 -0.2292099 169.65403748 -0.2292099 172.82592773 0.39440918 C174.89930725 2.62075043 174.89930725 2.62075043 175.82592773 5.39440918 C175.01342773 8.20690918 175.01342773 8.20690918 173.82592773 10.39440918 C150.1306258 10.4410737 126.43533073 10.47637075 102.73999214 10.49803352 C91.73851106 10.50835805 80.73705849 10.52244078 69.7355957 10.54528809 C60.14976447 10.56518603 50.56395387 10.57811705 40.97810256 10.58258617 C35.89972434 10.58519966 30.82140516 10.59136677 25.74304581 10.60586929 C20.96774371 10.61939648 16.19252525 10.62364173 11.41720581 10.62062454 C9.66035381 10.62117689 7.90349915 10.6251832 6.14666367 10.63282013 C3.7562916 10.64270542 1.36623937 10.64040179 -1.0241394 10.63491821 C-1.72646631 10.6407439 -2.42879322 10.64656958 -3.15240276 10.6525718 C-7.94582984 10.6226516 -7.94582984 10.6226516 -10.17407227 8.39440918 C-10.52121315 5.68671029 -10.62008663 4.07541357 -9.10292053 1.7589035 C-6.23304351 -0.27128777 -3.38879596 -0.02618275 0 0 Z " fill="#000000" transform="translate(89.174072265625,364.6055908203125)"/>
<path d="M0 0 C0.71915179 -0.00467997 1.43830359 -0.00935994 2.17924786 -0.01418173 C4.59535203 -0.02617298 7.01089331 -0.01665872 9.42700195 -0.00723267 C11.15654838 -0.01129655 12.88609221 -0.01663739 14.6156311 -0.02316284 C19.31804875 -0.03686414 24.0202694 -0.03152622 28.72269058 -0.02202559 C33.63804922 -0.01444354 38.55339072 -0.02147054 43.46875 -0.02618408 C51.7240706 -0.03164588 59.97931075 -0.02443889 68.23461914 -0.01016235 C77.78623368 0.00616497 87.33765613 0.00087676 96.88926601 -0.01564157 C105.08210364 -0.02924435 113.27488335 -0.03118202 121.46772861 -0.02332556 C126.36445325 -0.01864239 131.26108752 -0.01804184 136.1578064 -0.02793503 C140.76085807 -0.03658486 145.36366147 -0.03061921 149.96668625 -0.01325226 C151.65860964 -0.00927678 153.35055384 -0.01043952 155.04246902 -0.01704025 C157.34711934 -0.02520423 159.65096759 -0.01499747 161.95556641 0 C163.24678909 0.00113108 164.53801178 0.00226215 165.86836243 0.00342751 C168.9777832 0.38095093 168.9777832 0.38095093 170.8971405 1.74460411 C172.42655452 4.06049609 172.32564294 5.66764497 171.9777832 8.38095093 C169.08948291 11.26925122 167.03976277 10.63258572 162.99316406 10.63491821 C161.90240901 10.63959818 161.90240901 10.63959818 160.78961849 10.6443727 C158.34054009 10.65238256 155.89170742 10.64601755 153.44262695 10.63973999 C151.69190322 10.64244853 149.94118063 10.64600869 148.19046021 10.65036011 C143.42610523 10.6595027 138.66183656 10.65593218 133.89748001 10.64960194 C128.92025768 10.64455159 123.94304292 10.64923069 118.96582031 10.65237427 C110.60618762 10.65601674 102.24659023 10.65120746 93.88696289 10.64169312 C84.21098598 10.63080803 74.53509333 10.63433341 64.85911846 10.64534593 C56.5635668 10.65441081 48.26804056 10.655708 39.97248554 10.65046859 C35.01263866 10.64734448 30.05283143 10.64695159 25.09298706 10.65354156 C20.43090733 10.65930281 15.76893665 10.65534063 11.10686874 10.64375305 C9.391948 10.6410999 7.67701814 10.64188265 5.96210098 10.64627838 C3.62874259 10.6517096 1.29573794 10.64492958 -1.03759766 10.63491821 C-2.34578964 10.63416416 -3.65398163 10.63341011 -5.0018158 10.63263321 C-8.0222168 10.38095093 -8.0222168 10.38095093 -10.0222168 8.38095093 C-10.37007653 5.66764497 -10.47098812 4.06049609 -8.9415741 1.74460411 C-6.01895828 -0.33183802 -3.55452263 0.00311367 0 0 Z " fill="#000000" transform="translate(89.022216796875,209.61904907226563)"/>
<path d="M0 0 C1.31095139 -0.00990463 2.62190277 -0.01980927 3.97257996 -0.03001404 C5.42878816 -0.02577573 6.88499547 -0.02121785 8.34120178 -0.01637268 C9.87208557 -0.02207381 11.4029651 -0.02903707 12.93383789 -0.03717041 C17.09501419 -0.05514592 21.25598013 -0.0539252 25.41718364 -0.04822803 C28.88897622 -0.04514238 32.36072803 -0.05122168 35.83251482 -0.05726677 C44.02196826 -0.07132492 52.21131742 -0.06974012 60.40077209 -0.05836487 C68.85383683 -0.04688302 77.30658433 -0.06095739 85.75960726 -0.08776134 C93.01319617 -0.10990214 100.26668538 -0.11655937 107.52030569 -0.11068493 C111.85428146 -0.10731016 116.18805386 -0.10976469 120.52200127 -0.12693596 C124.59736864 -0.14237727 128.67226532 -0.13848128 132.74761391 -0.11963081 C134.24400109 -0.11593702 135.74042293 -0.11907642 137.23677826 -0.1295166 C139.27801531 -0.14267195 141.31937345 -0.12880481 143.3605957 -0.11352539 C145.07481673 -0.11321146 145.07481673 -0.11321146 146.82366848 -0.1128912 C150.38544993 0.49767435 151.59623722 1.52695501 153.74378967 4.38768005 C153.74378967 7.01268005 153.74378967 7.01268005 152.74378967 9.38768005 C149.39235658 11.66146649 146.41922728 11.64113259 142.44325256 11.64837646 C140.50000595 11.65900368 140.50000595 11.65900368 138.51750183 11.66984558 C137.08381618 11.66755182 135.65013086 11.66504213 134.21644592 11.66233826 C132.70512134 11.66668589 131.19379896 11.67186921 129.68247986 11.67782593 C125.5792484 11.69122043 121.47610902 11.69179419 117.37285995 11.68926263 C113.94824639 11.68819341 110.5236515 11.69307493 107.09904194 11.69786805 C99.02130043 11.70896439 90.94360543 11.70939966 82.86585999 11.70335388 C74.5292759 11.69731041 66.19286044 11.70963423 57.85630512 11.73092395 C50.70037159 11.74852745 43.5444918 11.75454337 36.38853741 11.75128621 C32.11385196 11.7494715 27.83928684 11.75212832 23.56462097 11.76600075 C19.54594785 11.7785545 15.52753814 11.77665845 11.50886917 11.76358986 C10.03344256 11.7612193 8.55799754 11.7639759 7.08259201 11.77221298 C5.06986101 11.7826404 3.05705529 11.77279953 1.04432678 11.76190186 C-0.64582298 11.76215347 -0.64582298 11.76215347 -2.37011719 11.76241016 C-5.5868363 11.3447516 -6.97741178 10.66550344 -9.25621033 8.38768005 C-9.7485076 5.57455275 -9.76787404 4.12254138 -8.11987972 1.75566006 C-5.40974476 -0.23364687 -3.34074679 0.00710557 0 0 Z " fill="#000000" transform="translate(88.25621032714844,325.61231994628906)"/>
<path d="M0 0 C1.31246704 -0.00563965 2.62493408 -0.0112793 3.97717285 -0.01708984 C5.44018609 -0.01320086 6.9031988 -0.0091045 8.36621094 -0.00482178 C9.90018887 -0.00753051 11.4341655 -0.01109078 12.96813965 -0.01544189 C17.14160839 -0.02458219 21.31497857 -0.02101492 25.4884491 -0.01468372 C29.849073 -0.00963219 34.20968828 -0.01431281 38.5703125 -0.01745605 C45.8942212 -0.02109818 53.2180896 -0.01629016 60.54199219 -0.0067749 C69.01827854 0.00411013 77.49446869 0.00058472 85.97075272 -0.01042771 C93.23871308 -0.01949359 100.50664442 -0.0207893 107.77460861 -0.01555037 C112.11965258 -0.01242681 116.46465129 -0.01203188 120.80969238 -0.01862335 C124.89395162 -0.02438604 128.97808641 -0.0204198 133.06233215 -0.00883484 C134.56439507 -0.00618246 136.0664684 -0.00696314 137.56852722 -0.01136017 C139.61273839 -0.01679409 141.65697236 -0.00878389 143.70117188 0 C145.42010651 0.00113108 145.42010651 0.00113108 147.17376709 0.002285 C149.85058594 0.25396729 149.85058594 0.25396729 151.85058594 2.25396729 C152.10058594 5.25396729 152.10058594 5.25396729 151.85058594 8.25396729 C149.09455493 11.0099983 147.52459809 10.50779062 143.66320801 10.5146637 C143.02179257 10.51848924 142.38037713 10.52231479 141.71952486 10.52625626 C139.56065563 10.53661193 137.40205109 10.53258939 135.24316406 10.52862549 C133.69933322 10.53297052 132.15550453 10.53815297 130.61167908 10.54411316 C126.41135977 10.55753601 122.21113027 10.55807826 118.01079369 10.55554986 C114.50904692 10.5544825 111.0073185 10.55935739 107.50557566 10.56415528 C99.2476811 10.57526155 90.98983202 10.5756814 82.73193359 10.56964111 C74.20108422 10.56359734 65.6703996 10.57591999 57.13957834 10.59721118 C49.8249069 10.61479862 42.51028804 10.62083313 35.19559622 10.61757344 C30.82257708 10.61575607 26.44967549 10.61844178 22.07667542 10.63228798 C17.96610998 10.64481562 13.8558024 10.64297068 9.74524117 10.62987709 C8.23349993 10.62750075 6.72174083 10.63028357 5.21002007 10.63850021 C3.15236399 10.64888091 1.09558722 10.64093875 -0.96203613 10.62818909 C-2.69203228 10.6284407 -2.69203228 10.6284407 -4.45697784 10.6286974 C-5.78973377 10.44320599 -5.78973377 10.44320599 -7.14941406 10.25396729 C-9.14941406 7.25396729 -9.14941406 7.25396729 -8.89941406 4.69146729 C-7.34386167 -0.364078 -4.78275306 0.0031471 0 0 Z " fill="#000000" transform="translate(88.1494140625,248.74603271484375)"/>
<path d="M0 0 C1.11905668 0.00184359 2.23811337 0.00368717 3.39108086 0.00558662 C4.6727816 0.0028373 5.95448235 0.00008797 7.27502251 -0.00274467 C8.70342919 0.00433411 10.13183495 0.01160373 11.56023979 0.01904488 C13.05805262 0.01960876 14.55586601 0.01929287 16.05367851 0.01815987 C20.12785842 0.01758447 24.2019213 0.02936883 28.27607393 0.04330778 C32.5308546 0.05578417 36.78563775 0.05698319 41.04043388 0.0593586 C49.1010674 0.06558248 57.16164686 0.08200555 65.22225654 0.10205758 C74.39745329 0.12438836 83.57265258 0.1354029 92.74786973 0.14544845 C111.6252985 0.16637101 130.50267692 0.20156459 149.38006401 0.24609566 C150.37006401 3.21609566 150.37006401 3.21609566 151.38006401 6.24609566 C149.19577245 8.90435548 148.01170549 10.13360754 144.56926441 10.74666691 C142.932474 10.74698083 142.932474 10.74698083 141.26261711 10.7473011 C140.00774498 10.75713524 138.75287285 10.76696938 137.45997429 10.77710152 C136.07192531 10.76772983 134.68387903 10.75795053 133.29583549 10.74780464 C131.83214613 10.75158817 130.36846034 10.75708849 128.90478325 10.76417732 C124.93165274 10.77814387 120.95895469 10.76695457 116.98584819 10.75046611 C112.82990152 10.73662232 108.67398012 10.74307482 104.51801872 10.7465992 C97.53975256 10.74930156 90.56165839 10.73582255 83.58343315 10.71264839 C75.51151414 10.68602801 67.43988252 10.68429472 59.36793464 10.69603676 C51.60660585 10.70680868 43.84538119 10.70063277 36.08406067 10.68648148 C32.77907734 10.68071761 29.4741701 10.68080745 26.16918564 10.68554688 C22.27934145 10.69031258 18.38981276 10.68023221 14.50002861 10.65859222 C13.07095784 10.65301896 11.64185677 10.65256401 10.21278381 10.65754509 C8.2653579 10.66348262 6.3179013 10.64918084 4.37052727 10.63377571 C3.27971068 10.63134582 2.1888941 10.62891592 1.06502247 10.62641239 C-1.61993599 10.24609566 -1.61993599 10.24609566 -3.47480869 8.8820219 C-5.08980262 6.57484526 -4.97243718 4.99560493 -4.61993599 2.24609566 C-2.61993599 0.24609566 -2.61993599 0.24609566 0 0 Z " fill="#000000" transform="translate(83.61993598937988,287.75390434265137)"/>
<path d="M0 0 C1.2521933 -0.00571014 2.5043866 -0.01142029 3.79452515 -0.01730347 C5.195053 -0.01854895 6.59558097 -0.01967402 7.99610901 -0.02069092 C9.46097438 -0.02531668 10.92583855 -0.03034101 12.39070129 -0.03573608 C16.38031808 -0.04888445 20.36991802 -0.05530964 24.3595531 -0.05974674 C26.84927331 -0.06267322 29.33898886 -0.06677718 31.82870674 -0.07125092 C39.61029014 -0.08493155 47.39186297 -0.09459573 55.17345756 -0.09845281 C64.17154431 -0.10293674 73.16947938 -0.12049776 82.16751999 -0.1494534 C89.11274004 -0.17103127 96.05791731 -0.18115498 103.00317055 -0.18249393 C107.15600629 -0.18354466 111.30869957 -0.18950907 115.46150017 -0.20731354 C119.36602642 -0.22372741 123.27030212 -0.2259826 127.17485046 -0.21717453 C128.61080659 -0.21640058 130.04677582 -0.22079373 131.48269844 -0.23063278 C133.43715578 -0.24324329 135.39171263 -0.23572383 137.34619141 -0.22705078 C138.44182624 -0.22851734 139.53746107 -0.2299839 140.66629696 -0.2314949 C141.93859079 -0.04738619 141.93859079 -0.04738619 143.23658752 0.14044189 C145.23658752 3.14044189 145.23658752 3.14044189 144.98658752 6.26544189 C144.61533752 7.68856689 144.61533752 7.68856689 144.23658752 9.14044189 C141.53147546 10.49299793 139.42079821 10.27259189 136.3908844 10.28088379 C135.14573059 10.28659393 133.90057678 10.29230408 132.61769104 10.29818726 C131.23023997 10.29943265 129.84278878 10.30055774 128.45533752 10.30157471 C127.00017673 10.30620184 125.54501716 10.31122636 124.08985901 10.31661987 C120.13129218 10.32975329 116.17274232 10.3361903 112.2141571 10.34063053 C109.74336009 10.34355887 107.27256774 10.34766315 104.80177307 10.3521347 C97.07785818 10.36581019 89.35395393 10.37547741 81.63002777 10.3793366 C72.70100121 10.38382198 63.77212738 10.40139185 54.84314728 10.43033719 C47.94886203 10.45191445 41.05461988 10.4620387 34.16030121 10.46337771 C30.03877905 10.46442831 25.91740044 10.47039009 21.7959137 10.48819733 C17.9217423 10.50461056 14.04782342 10.50686671 10.17362976 10.49805832 C8.74896064 10.49728438 7.3242783 10.50167729 5.89964294 10.51151657 C3.96056615 10.52412739 2.02138905 10.5166075 0.08229065 10.50793457 C-1.00467102 10.50940113 -2.09163269 10.51086769 -3.21153259 10.51237869 C-4.05365295 10.38963955 -4.89577332 10.26690041 -5.76341248 10.14044189 C-7.76341248 7.14044189 -7.76341248 7.14044189 -7.45091248 4.01544189 C-6.28884442 -0.84411543 -4.70727504 0.01278471 0 0 Z " fill="#000000" transform="translate(170.76341247558594,132.85955810546875)"/>
<path d="M0 0 C0.90851715 -0.00708481 1.8170343 -0.01416962 2.75308228 -0.02146912 C3.74746307 -0.0189917 4.74184387 -0.01651428 5.76635742 -0.01396179 C7.33986465 -0.02162819 7.33986465 -0.02162819 8.94515991 -0.02944946 C12.42077298 -0.04337641 15.89618848 -0.0423865 19.37182617 -0.04008484 C21.78173904 -0.04396972 24.19165122 -0.04830396 26.6015625 -0.05307007 C31.65554015 -0.06053872 36.70944795 -0.06023606 41.76342773 -0.05497742 C48.25040067 -0.04917839 54.73708851 -0.06612137 61.22401428 -0.08932209 C66.20131104 -0.10402917 71.17853863 -0.10493532 76.15585327 -0.10181236 C78.54813197 -0.10232698 80.9404144 -0.10759088 83.33267212 -0.11762428 C86.67273688 -0.12991422 90.01223965 -0.12324184 93.35229492 -0.11161804 C94.84386612 -0.12308365 94.84386612 -0.12308365 96.36557007 -0.13478088 C97.72834579 -0.12425941 97.72834579 -0.12425941 99.11865234 -0.11352539 C99.90841965 -0.11369313 100.69818695 -0.11386087 101.5118866 -0.1140337 C104.09662807 0.35903543 104.98656321 1.18801554 106.55932617 3.26069641 C106.87182617 5.82319641 106.87182617 5.82319641 106.55932617 8.26069641 C104.55932617 10.26069641 104.55932617 10.26069641 102.57970238 10.50679207 C101.3546395 10.50402669 101.3546395 10.50402669 100.10482788 10.50120544 C98.69974724 10.50532944 98.69974724 10.50532944 97.26628113 10.50953674 C96.2355397 10.50234619 95.20479828 10.49515564 94.14282227 10.48774719 C93.05988388 10.48803925 91.9769455 10.4883313 90.8611908 10.4886322 C87.26830129 10.48723469 83.67561711 10.47165359 80.08276367 10.45600891 C77.59697584 10.45228028 75.11118655 10.4494326 72.62539673 10.44743347 C66.74283531 10.44056767 60.86035016 10.42479188 54.97782004 10.40473449 C47.62479359 10.38020627 40.27175804 10.36944896 32.91870117 10.35835266 C19.7988718 10.33688172 6.67910367 10.30311409 -6.44067383 10.26069641 C-7.83498886 7.47206634 -7.69727477 5.33990773 -7.44067383 2.26069641 C-4.2987576 0.1660856 -3.57853888 0.00930182 0 0 Z " fill="#000000" transform="translate(209.440673828125,93.73930358886719)"/>
</svg>
