<?xml version="1.0" encoding="UTF-8"?>
<svg version="1.1" xmlns="http://www.w3.org/2000/svg" width="512" height="512">
<path d="M0 0 C6.6 0 13.2 0 20 0 C20 126.39 20 252.78 20 383 C-61.51 383 -143.02 383 -227 383 C-226.67 381.35 -226.34 379.7 -226 378 C-225.78118981 375.3931873 -225.58987147 372.79779811 -225.4375 370.1875 C-225.39431641 369.49462891 -225.35113281 368.80175781 -225.30664062 368.08789062 C-225.20138547 366.39211314 -225.10027137 364.69607948 -225 363 C-223.85771502 362.99668985 -222.71543003 362.99337971 -221.53853035 362.98996925 C-193.78164474 362.9090801 -166.02481498 362.81679707 -138.26800728 362.71247292 C-135.59908177 362.70249453 -132.93015621 362.69253239 -130.26123047 362.68261719 C-129.26614268 362.6789182 -129.26614268 362.6789182 -128.25095211 362.67514448 C-117.49848352 362.63538184 -106.74600437 362.60265005 -95.99350502 362.57250018 C-84.96680228 362.54142557 -73.94014578 362.50268432 -62.91349304 362.45720994 C-56.71731568 362.43190142 -50.52117032 362.41013311 -44.32495499 362.39665604 C-38.49902539 362.38387506 -32.67320531 362.36186393 -26.84733582 362.33261681 C-24.70348668 362.32350989 -22.5596199 362.3178436 -20.41575241 362.31578636 C-17.49987139 362.31248572 -14.58430507 362.29706849 -11.66848755 362.2784729 C-10.38154029 362.281375 -10.38154029 362.281375 -9.0685941 362.28433573 C-4.55988752 362.43637955 -4.55988752 362.43637955 -1 360 C-0.69134756 357.3222865 -0.69134756 357.3222865 -0.73828697 354.13165092 C-0.73082148 352.87364642 -0.72335599 351.61564192 -0.71566427 350.31951606 C-0.71744134 348.91051007 -0.71940228 347.50150429 -0.7215271 346.09249878 C-0.71652852 344.60584143 -0.71065403 343.1191868 -0.70397437 341.63253605 C-0.68810724 337.53247439 -0.68474002 333.43248112 -0.68332577 329.33239245 C-0.67964337 324.91655174 -0.66449379 320.50074907 -0.65071106 316.08493042 C-0.62839777 308.42929352 -0.61340901 300.77367008 -0.60334396 293.11800766 C-0.58878096 282.04910254 -0.5632509 270.98024428 -0.53501268 259.9113666 C-0.48950133 241.95443257 -0.45290452 223.99749181 -0.421875 206.04052734 C-0.39170721 188.59324969 -0.35736512 171.14598852 -0.31738281 153.69873047 C-0.31492126 152.62393751 -0.31245972 151.54914455 -0.30992357 150.4417821 C-0.29754932 145.05005756 -0.28509272 139.65833321 -0.27259517 134.26660895 C-0.16896237 89.51109549 -0.07992849 44.7555616 0 0 Z " fill="#000000" transform="translate(426,64)"/>
<path d="M0 0 C0 85.8 0 171.6 0 260 C-12.87 260 -25.74 260 -39 260 C-39.20344992 229.78248403 -39.36458192 199.56505599 -39.45958797 169.34701165 C-39.47084435 165.77967979 -39.48249325 162.21234932 -39.49438477 158.64501953 C-39.49674556 157.93482708 -39.49910635 157.22463463 -39.50153869 156.49292119 C-39.54070301 144.99280902 -39.61166486 133.49310167 -39.69437516 121.99322967 C-39.77853347 110.19363647 -39.82852763 98.39425531 -39.84679645 86.5943743 C-39.85803878 79.96624177 -39.8861961 73.33886266 -39.95157051 66.71100998 C-40.01258845 60.47439402 -40.03151852 54.23907574 -40.01796913 48.00218964 C-40.02044835 45.71158168 -40.03839471 43.42093105 -40.07284927 41.1305809 C-40.11757645 38.00442984 -40.1068967 34.88318989 -40.08229065 31.75692749 C-40.10850622 30.84835884 -40.1347218 29.9397902 -40.16173178 29.00368917 C-40.10585178 26.38113087 -39.95663069 24.44610801 -39 22 C-36.28138148 19.41134321 -33.31255947 17.72674752 -30 16 C-28.75986306 15.23978927 -27.52421651 14.47210645 -26.296875 13.69140625 C-25.11652143 12.97855181 -23.93420453 12.2689387 -22.75 11.5625 C-21.80217651 10.99607788 -21.80217651 10.99607788 -20.83520508 10.41821289 C-3.27132124 0 -3.27132124 0 0 0 Z " fill="#000000" transform="translate(379,156)"/>
<path d="M0 0 C9.61728194 1.36965095 18.87695985 3.6428115 28.25 6.125 C29.68867489 6.50178808 31.12747637 6.87809316 32.56640625 7.25390625 C36.04574356 8.16372385 39.52333726 9.08000778 43 10 C42.39756702 15.64121575 41.38392472 20.95785389 39.93359375 26.4375 C39.73524429 27.20304199 39.53689484 27.96858398 39.33253479 28.75732422 C38.70555271 31.1728009 38.07165551 33.58639787 37.4375 36 C37.00800268 37.64961966 36.57896192 39.29935826 36.15039062 40.94921875 C35.1055294 44.96753911 34.05446774 48.98419034 33 53 C29.21429586 51.73809862 28.78168429 50.45144185 26.8125 47.0625 C26.28269531 46.16660156 25.75289063 45.27070312 25.20703125 44.34765625 C24 42 24 42 24 40 C19.1980097 39.67200967 16.58248243 40.40732821 12.4921875 42.90234375 C11.43813721 43.5363208 10.38408691 44.17029785 9.2980957 44.82348633 C8.1569369 45.52795203 7.01590881 46.2326295 5.875 46.9375 C4.67154615 47.66746314 3.4673477 48.39619995 2.26245117 49.1237793 C-0.88211754 51.02671706 -4.01716939 52.94477572 -7.15008545 54.86682129 C-10.0546874 56.64605649 -12.96688559 58.41261756 -15.87890625 60.1796875 C-19.30226497 62.25711872 -22.72535047 64.33495881 -26.14501953 66.41845703 C-36.57350226 72.76802081 -47.0615151 79.01590991 -57.57788086 85.21875 C-63.53273102 88.73381778 -69.4673368 92.26649826 -75.328125 95.9375 C-76.72321289 96.80411255 -76.72321289 96.80411255 -78.14648438 97.68823242 C-79.82816316 98.7373893 -81.50202317 99.79923286 -83.16601562 100.8762207 C-83.88982422 101.32570068 -84.61363281 101.77518066 -85.359375 102.23828125 C-85.97264648 102.63055908 -86.58591797 103.02283691 -87.21777344 103.42700195 C-89 104 -89 104 -91.125 103.20263672 C-93.13448933 101.9137377 -94.61340546 100.54840246 -96.25 98.8125 C-98.6159859 96.31181688 -101.09599911 94.02222681 -103.6953125 91.76953125 C-108.8856515 87.2639288 -113.84312117 82.52322985 -118.8203125 77.78515625 C-120.22825994 76.45117707 -121.64240726 75.12370278 -123.06347656 73.80371094 C-124.27576843 72.67456162 -125.4732216 71.52902249 -126.64746094 70.36035156 C-129.07643916 68.07044301 -130.48589117 67.02241346 -133.8671875 66.875 C-138.04382634 68.37484038 -141.44400362 70.54719252 -145.125 73 C-146.81213184 74.09502561 -148.50104922 75.18730337 -150.19140625 76.27734375 C-151.11324707 76.87272949 -152.03508789 77.46811523 -152.98486328 78.08154297 C-158.62072379 81.66750183 -164.3455689 85.10796312 -170.0625 88.5625 C-171.28718674 89.30382729 -172.5117963 90.04528208 -173.73632812 90.78686523 C-175.5261535 91.87067667 -177.31605649 92.95435818 -179.10629272 94.03749084 C-183.78566043 96.86862123 -188.45866849 99.70994079 -193.125 102.5625 C-193.81190918 102.98241211 -194.49881836 103.40232422 -195.20654297 103.83496094 C-202.82554975 108.49809304 -210.42797849 113.18821949 -218.03320312 117.8737793 C-226.32765384 122.98033801 -234.64322225 128.05124332 -242.97216797 133.10131836 C-247.30766694 135.73437824 -251.62980584 138.38415345 -255.91796875 141.09375 C-256.6661084 141.56635254 -257.41424805 142.03895508 -258.18505859 142.52587891 C-259.5617746 143.39892603 -260.93597995 144.27595026 -262.30712891 145.15771484 C-266.78291128 148 -266.78291128 148 -269 148 C-269.85294775 144.24520868 -270.18379707 140.66988506 -270.31640625 136.82421875 C-270.35830078 135.66728516 -270.40019531 134.51035156 -270.44335938 133.31835938 C-270.48267578 132.12017578 -270.52199219 130.92199219 -270.5625 129.6875 C-270.60568359 128.46998047 -270.64886719 127.25246094 -270.69335938 125.99804688 C-270.79921496 122.9988053 -270.90129726 119.99948409 -271 117 C-269.28645833 115.95963542 -267.57291667 114.91927083 -265.859375 113.87890625 C-264.74079102 113.19973145 -263.62220703 112.52055664 -262.46972656 111.82080078 C-259.95100895 110.29156139 -257.43210643 108.76262713 -254.91308594 107.23388672 C-248.61616953 103.41208265 -242.3208932 99.58767073 -236.03125 95.75390625 C-222.78900069 87.68810327 -209.49594228 79.71645276 -196.15148926 71.82086182 C-186.45730486 66.10279162 -186.45730486 66.10279162 -176.88098145 60.19076538 C-168.80499874 55.07822126 -160.65717745 50.0852552 -152.46972656 45.15356445 C-150.99698439 44.26379622 -149.52689279 43.36962504 -148.05957031 42.47094727 C-145.98940714 41.20430327 -143.91018645 39.95399321 -141.828125 38.70703125 C-141.19964661 38.31804153 -140.57116821 37.92905182 -139.92364502 37.52827454 C-135.59264816 34.96658337 -135.59264816 34.96658337 -132.74414062 35.12719727 C-129.81165266 36.5946727 -127.58884508 38.87222917 -125.25 41.125 C-124.17252461 42.13871175 -123.09439995 43.15173383 -122.015625 44.1640625 C-121.23541992 44.90124512 -121.23541992 44.90124512 -120.43945312 45.65332031 C-118.6641789 47.31417727 -116.84186909 48.91351612 -115 50.5 C-111.63220613 53.41968824 -108.34349126 56.42113783 -105.0625 59.4375 C-104.54864746 59.90647705 -104.03479492 60.3754541 -103.50537109 60.85864258 C-101.11873402 63.03838734 -98.76077222 65.23228835 -96.44140625 67.484375 C-95.67699219 68.21140625 -94.91257813 68.9384375 -94.125 69.6875 C-93.46757812 70.33074219 -92.81015625 70.97398438 -92.1328125 71.63671875 C-89.1671626 73.53234478 -87.47069743 73.49211381 -84 73 C-81.70480853 71.8221247 -79.73812853 70.63443331 -77.625 69.1875 C-76.20855152 68.26129434 -74.78897283 67.3398672 -73.3671875 66.421875 C-72.54186523 65.88884766 -71.71654297 65.35582031 -70.86621094 64.80664062 C-65.58502727 61.4777855 -60.19523539 58.32871402 -54.81848145 55.15753174 C-42.33922619 47.79701733 -29.91639321 40.35045327 -17.56152344 32.78295898 C-16.50739258 32.13915283 -15.45326172 31.49534668 -14.3671875 30.83203125 C-13.34206055 30.20377441 -12.31693359 29.57551758 -11.26074219 28.92822266 C-8.89814264 27.53111191 -6.54134051 26.20178399 -4.12207031 24.91162109 C-3.47771027 24.56250168 -2.83335022 24.21338226 -2.16946411 23.85368347 C-0.92425723 23.18311329 0.32858641 22.52647627 1.58963013 21.88618469 C4.39611396 20.36570208 5.81490921 19.48104254 6.98071289 16.45117188 C7.00907292 12.8469347 5.47874486 10.81947292 3.5625 7.8125 C0 2.15851272 0 2.15851272 0 0 Z " fill="#000000" transform="translate(344,51)"/>
<path d="M0 0 C0 70.95 0 141.9 0 215 C-12.87 215 -25.74 215 -39 215 C-39.36140285 190.13895906 -39.65603217 165.28004949 -39.82899475 140.4170475 C-39.91144476 128.8722889 -40.02381107 117.32927991 -40.20703125 105.78564453 C-40.36668224 95.7221552 -40.46976992 85.65993286 -40.50541592 75.59521234 C-40.52625058 70.26685155 -40.57506929 64.94211463 -40.69168091 59.61491776 C-40.8006644 54.59532084 -40.8337221 49.58082162 -40.8097229 44.56015396 C-40.8141093 42.72253136 -40.84574445 40.88473084 -40.9072876 39.04813385 C-41.33700877 25.55745887 -41.33700877 25.55745887 -37.44469643 21.2979846 C-33.62034754 18.20498929 -29.43278981 15.99906341 -24.98280716 13.94389987 C-22.07139452 12.55794461 -19.39684687 10.88284914 -16.66015625 9.1796875 C-14.79550384 8.07603914 -12.92965259 6.97441327 -11.0625 5.875 C-10.09376953 5.30007812 -9.12503906 4.72515625 -8.12695312 4.1328125 C-7.20978516 3.59140625 -6.29261719 3.05 -5.34765625 2.4921875 C-4.53304932 2.01120605 -3.71844238 1.53022461 -2.87915039 1.03466797 C-1 0 -1 0 0 0 Z " fill="#000000" transform="translate(302,201)"/>
<path d="M0 0 C0 79.53 0 159.06 0 241 C-7.92 241 -15.84 241 -24 241 C-24.00410889 238.1139502 -24.00821777 235.22790039 -24.01245117 232.25439453 C-24.02968576 222.69493079 -24.07424956 213.13573311 -24.13209057 203.57643318 C-24.16631063 197.78332516 -24.19146286 191.99047948 -24.19555664 186.19726562 C-24.19985018 180.60139409 -24.22840114 175.00611385 -24.27343178 169.41042709 C-24.28637295 167.28075485 -24.29072652 165.15101173 -24.28615379 163.02130508 C-23.7097205 147.55947969 -23.7097205 147.55947969 -30 134 C-31.51004777 132.92856397 -33.04405322 131.8903102 -34.59701538 130.88208008 C-38.04269347 128.24881103 -39.61419762 126.61426106 -40.27070618 122.28640747 C-40.38108705 120.47193449 -40.44332899 118.65411091 -40.46606445 116.83642578 C-40.51235489 115.83858566 -40.55864532 114.84074554 -40.6063385 113.81266785 C-40.74246397 110.52302699 -40.80899194 107.23726545 -40.86328125 103.9453125 C-40.8899758 102.81453152 -40.91667034 101.68375053 -40.94417381 100.51870346 C-41.08477738 94.52728764 -41.17300027 88.53779982 -41.21704102 82.54492188 C-41.26098147 77.60970266 -41.39267999 72.68952447 -41.60668945 67.75878906 C-43.35381657 26.76276492 -43.35381657 26.76276492 -36.26116943 18.12390137 C-30.10528406 12.02870509 -22.34872884 8.83816433 -14.23617554 6.15032959 C-11.25464126 5.09051467 -8.9178822 3.89318948 -6.2902832 2.15673828 C-3 0 -3 0 0 0 Z " fill="#000000" transform="translate(225,175)"/>
<path d="M0 0 C3.35033818 3.06491384 4.77242055 5.95692753 5.75 10.4375 C4.62000619 15.8049706 2.25972658 18.6029182 -2 22 C-25.92411711 36.33698613 -59.84016924 37.86863765 -86.62255859 31.77246094 C-97.23648024 29.08964441 -109.21958899 25.76100814 -116.4375 17.0625 C-118.10541316 13.7933902 -119 11.6773801 -119 8 C-114.6733678 -1.02949328 -105.51682251 -5.36137311 -96.4921875 -8.609375 C-66.74204522 -18.35164081 -26.69498931 -17.88451329 0 0 Z " fill="#000000" transform="translate(185,313)"/>
<path d="M0 0 C0 22.44 0 44.88 0 68 C-12.87 68 -25.74 68 -39 68 C-43.64728549 29.19193887 -43.64728549 29.19193887 -37.61968994 19.8638916 C-30.6011736 12.09636968 -20.16191837 7.87653113 -10.50512695 4.35473633 C-7.07609735 3.02941173 -3.63911934 0 0 0 Z " fill="#000000" transform="translate(148,221)"/>
<path d="M0 0 C3.49350778 1.34673392 6.87176061 2.87457063 10.26147461 4.4621582 C38.44503672 17.39995301 74.58589384 18.93729402 104 9 C110.8475249 6.4062176 117.47595479 3.31953938 124 0 C124.13685034 1.85204123 124.23282109 3.70711972 124.3125 5.5625 C124.37050781 6.59503906 124.42851562 7.62757813 124.48828125 8.69140625 C123.83033585 13.14964427 122.12709731 15.79843633 119 19 C116.67340495 20.72512991 114.24880767 21.97283327 111.625 23.1875 C110.92455566 23.52281738 110.22411133 23.85813477 109.50244141 24.20361328 C102.53924448 27.41703562 95.51996913 29.45535769 88 31 C86.94167969 31.22429687 85.88335937 31.44859375 84.79296875 31.6796875 C60.01821237 36.05346553 28.75625691 34.49529047 7.25 20.16796875 C3.73406412 17.28615702 0.85409017 14.59073465 0 10 C-0.13406047 6.6588006 -0.11678461 3.34133755 0 0 Z " fill="#000000" transform="translate(66,343)"/>
<path d="M0 0 C3.49350778 1.34673392 6.87176061 2.87457063 10.26147461 4.4621582 C38.44503672 17.39995301 74.58589384 18.93729402 104 9 C110.8475249 6.4062176 117.47595479 3.31953938 124 0 C124.13685034 1.85204123 124.23282109 3.70711972 124.3125 5.5625 C124.37050781 6.59503906 124.42851562 7.62757813 124.48828125 8.69140625 C123.83033585 13.14964427 122.12709731 15.79843633 119 19 C116.67340495 20.72512991 114.24880767 21.97283327 111.625 23.1875 C110.92455566 23.52281738 110.22411133 23.85813477 109.50244141 24.20361328 C102.53924448 27.41703562 95.51996913 29.45535769 88 31 C86.94167969 31.22429687 85.88335937 31.44859375 84.79296875 31.6796875 C60.01821237 36.05346553 28.75625691 34.49529047 7.25 20.16796875 C3.73406412 17.28615702 0.85409017 14.59073465 0 10 C-0.13406047 6.6588006 -0.11678461 3.34133755 0 0 Z " fill="#000000" transform="translate(66,400)"/>
<path d="M0 0 C0.73766602 0.37753418 0.73766602 0.37753418 1.49023438 0.76269531 C32.65580796 16.54804387 70.24473358 20.30581528 103.97070312 9.73486328 C110.25913774 7.45765103 116.14038691 4.19283157 122 1 C122.66 0.67 123.32 0.34 124 0 C125.20197082 12.51575961 125.20197082 12.51575961 121.4375 17.375 C103.90318708 34.03084032 74.62933229 33.64317051 52.19555664 33.24153137 C36.548254 32.82247026 17.33920416 29.30293155 5 19 C1.30348952 14.260884 -0.13990622 10.77277876 -0.0625 4.8125 C-0.05347656 3.91144531 -0.04445313 3.01039063 -0.03515625 2.08203125 C-0.02355469 1.39496094 -0.01195313 0.70789063 0 0 Z " fill="#000000" transform="translate(66,371)"/>
<path d="M0 0 C0.73766602 0.37753418 0.73766602 0.37753418 1.49023438 0.76269531 C33.28783158 16.86816353 70.82220822 20.17498585 105 9 C111.66919364 6.55151982 117.94457839 3.7158269 124 0 C124.61492759 10.55625696 124.61492759 10.55625696 122.5625 15.375 C108.34916244 29.93500433 85.49308808 33.04911109 66.09008789 33.42382812 C46.61927835 33.49429703 20.25552768 32.69385278 5.15625 18.234375 C1.25426479 13.85384444 -0.13986766 10.76981011 -0.0625 4.8125 C-0.05347656 3.91144531 -0.04445313 3.01039063 -0.03515625 2.08203125 C-0.02355469 1.39496094 -0.01195313 0.70789063 0 0 Z " fill="#000000" transform="translate(66,428)"/>
</svg>
