<?xml version="1.0" encoding="utf-8"?>
<!-- Svg Vector Icons : http://www.onlinewebfonts.com/icon -->
<!DOCTYPE svg PUBLIC "-//W3C//DTD SVG 1.1//EN" "http://www.w3.org/Graphics/SVG/1.1/DTD/svg11.dtd">
<svg version="1.1" xmlns="http://www.w3.org/2000/svg" xmlns:xlink="http://www.w3.org/1999/xlink" x="0px" y="0px" viewBox="0 0 256 256" enable-background="new 0 0 256 256" xml:space="preserve">
<metadata> Svg Vector Icons : http://www.onlinewebfonts.com/icon </metadata>
<g><g><path stroke-width="4" fill-opacity="0" stroke="#000000"  d="M60.5,174.5c-0.6-0.2-4-1.8-1.9-8.4h0c5.7-5.9,10-15.3,10-24.6c0-14.3-9.5-21.8-20.5-21.8c-11.1,0-20.5,7.5-20.5,21.8c0,9.3,4.3,18.8,10.1,24.7c2.2,5.9-1.8,8-2.6,8.3C23.6,178.7,10,186.3,10,193.9v2.8c0,10.3,19.9,12.6,38.3,12.6c18.4,0,38.1-2.3,38.1-12.6v-2.8C86.3,186.1,72.7,178.6,60.5,174.5L60.5,174.5z M146.4,159.7v46.4c0,0.8,0.3,1.6,0.9,2.3c0.6,0.6,1.4,0.9,2.2,0.9H173c0.8,0,1.6-0.3,2.3-0.9c0.6-0.6,0.9-1.4,0.9-2.3v-61.8l-23.8,20.5L146.4,159.7L146.4,159.7z M96.3,142v64c0,0.8,0.3,1.6,0.9,2.3c0.6,0.6,1.5,0.9,2.3,0.9h23.5c0.8,0,1.6-0.3,2.2-0.9c0.7-0.6,0.9-1.4,0.9-2.3v-63.6l-14.9-12.7L96.3,142L96.3,142z M196.5,206.1c0,0.8,0.3,1.6,0.9,2.3c0.6,0.6,1.4,0.9,2.3,0.9h23.5c0.8,0,1.6-0.3,2.3-0.9c0.6-0.6,0.9-1.4,0.9-2.3v-105l-29.9,25.7V206.1L196.5,206.1z M191.4,46.7c-0.4,0-0.8,0.3-1,0.7c-0.2,0.4-0.1,0.9,0.3,1.2l22.4,22l-60.7,52.2l-41.2-35.1l-15.1,3.7v23.2l15.1-3.7l41.2,35.1L225.7,83l18.5,18.2c0.3,0.3,0.7,0.4,1.2,0.2c0.4-0.2,0.7-0.6,0.7-1V47.8c0-0.3-0.1-0.6-0.3-0.7c-0.2-0.2-0.5-0.3-0.7-0.3L191.4,46.7L191.4,46.7z"/></g></g>
</svg>