<?xml version="1.0" encoding="UTF-8"?>
<svg version="1.1" xmlns="http://www.w3.org/2000/svg" width="512" height="512">
<path d="M0 0 C0.6770549 -0.0071553 1.3541098 -0.01431061 2.05168152 -0.02168274 C4.27855937 -0.03852364 6.50341086 -0.01920016 8.73022461 0.00219727 C10.2829149 0.00136822 11.8356051 -0.00109251 13.38829041 -0.00511169 C16.63738521 -0.00796637 19.88578937 0.00669969 23.13476562 0.03417969 C27.29690264 0.06829139 31.45780738 0.06223227 35.6200037 0.04351711 C38.82427727 0.03294395 42.02826456 0.04188713 45.23251152 0.05690193 C46.76708564 0.06208003 48.30168971 0.06160643 49.83625984 0.05535698 C51.98133687 0.04989936 54.12465479 0.07029173 56.26953125 0.09765625 C57.48911026 0.10385483 58.70868927 0.11005341 59.96522522 0.11643982 C63.07006836 0.63110352 63.07006836 0.63110352 65.23279572 2.01280975 C68.11489711 6.12008698 67.61808704 10.13670007 67.5712738 15.03846741 C67.5768082 16.10965913 67.5823426 17.18085085 67.5880447 18.28450292 C67.60169468 21.88602853 67.58665782 25.48686636 67.57177734 29.08837891 C67.5755589 31.66535233 67.58105758 34.24232372 67.58815002 36.81929016 C67.60209294 43.09904702 67.5945189 49.37860299 67.57947444 55.6583503 C67.56262793 62.9680379 67.56582283 70.27767527 67.56956852 77.58737629 C67.57544892 90.62713917 67.56126797 103.66680552 67.53662109 116.70654297 C67.51269484 129.3664105 67.5056185 142.02614908 67.51611328 154.68603516 C67.52751581 168.46567194 67.52946118 182.24524907 67.51501518 196.02488512 C67.51348931 197.49343677 67.51196895 198.96198842 67.51045418 200.43054008 C67.50969636 201.15313489 67.50893855 201.87572969 67.50815777 202.62022131 C67.50341017 207.7184374 67.50526971 212.81662691 67.50951958 217.91484261 C67.51495309 224.77255875 67.50423136 231.63009258 67.48256493 238.4877758 C67.47698271 241.0101651 67.4765448 243.53257158 67.48151779 246.05496216 C67.48743761 249.48708402 67.47502871 252.91865149 67.45774841 256.35072327 C67.46676348 257.86266544 67.46676348 257.86266544 67.47596067 259.4051519 C67.46330076 260.77938589 67.46330076 260.77938589 67.45038509 262.18138218 C67.44935596 262.97396854 67.44832683 263.7665549 67.44726652 264.58315903 C66.97262748 267.16014508 66.10811538 268.03288398 64.07006836 269.63110352 C61.88256836 270.31860352 61.88256836 270.31860352 60.07006836 270.63110352 C60.40780273 271.58629883 60.74553711 272.54149414 61.09350586 273.52563477 C61.54444519 274.83147991 61.99494184 276.13747797 62.44506836 277.44360352 C62.66678711 278.06686523 62.88850586 278.69012695 63.11694336 279.33227539 C71.30503165 303.29447495 68.63833123 330.44105351 57.85913086 353.07250977 C53.72704069 361.29157996 48.91627164 368.53582156 43.07006836 375.63110352 C42.52608398 376.31043945 41.98209961 376.98977539 41.42163086 377.68969727 C25.32137146 397.07803781 0.61108335 407.6514692 -23.92993164 410.63110352 C-28.23786233 410.88593896 -32.52931504 410.90628668 -36.84393311 410.89179993 C-38.07627882 410.89562547 -39.30862454 410.89945102 -40.57831407 410.90339249 C-43.95947304 410.91185625 -47.34041178 410.91151566 -50.72156382 410.9072119 C-54.38360105 410.90472691 -58.04561363 410.91378071 -61.7076416 410.92124939 C-68.86711337 410.93394997 -76.02654755 410.93579586 -83.18602869 410.93344913 C-89.01080568 410.93166043 -94.83557134 410.9334274 -100.66034698 410.93767357 C-101.49183642 410.93826876 -102.32332586 410.93886395 -103.18001194 410.93947717 C-104.86962857 410.94068903 -106.5592452 410.94190316 -108.24886182 410.94311955 C-124.06798203 410.95397742 -139.88708089 410.95184104 -155.7062023 410.9457347 C-170.1466048 410.94056834 -184.58693979 410.95181672 -199.02732894 410.97083292 C-213.88862204 410.99025191 -228.74988327 410.99846014 -243.61118913 410.99470967 C-251.94104882 410.99280362 -260.2708511 410.99522667 -268.60070038 411.00942421 C-275.69294962 411.02139096 -282.78510609 411.02268406 -289.87735674 411.01063404 C-293.48863861 411.00478196 -297.09975125 411.00354275 -300.71102142 411.01563644 C-330.93675919 411.10980887 -358.45671777 407.22092952 -381.92993164 386.63110352 C-383.04754883 385.72811523 -383.04754883 385.72811523 -384.18774414 384.80688477 C-401.8995988 370.0881484 -414.29816759 346.51351308 -416.92993164 323.63110352 C-419.02446899 293.1479441 -413.31491531 267.10307145 -393.26586914 243.44750977 C-378.63064664 226.67890317 -359.62236841 214.84857172 -337.80493164 210.31860352 C-336.56996948 210.0608313 -336.56996948 210.0608313 -335.31005859 209.79785156 C-329.46925675 208.68346125 -323.86791131 208.43968284 -317.92993164 208.63110352 C-317.83711914 207.26985352 -317.83711914 207.26985352 -317.74243164 205.88110352 C-315.72920941 192.14706692 -306.81552248 177.98831213 -297.92993164 167.63110352 C-296.93026367 166.43227539 -296.93026367 166.43227539 -295.91040039 165.20922852 C-280.23677752 147.02217783 -259.78768631 134.8576346 -236.30493164 130.19360352 C-235.49540039 130.02957031 -234.68586914 129.86553711 -233.85180664 129.6965332 C-226.22875716 128.34434943 -218.64371279 128.48581633 -210.92993164 128.63110352 C-210.95349731 126.97340942 -210.95349731 126.97340942 -210.97753906 125.28222656 C-211.03181721 121.1841561 -211.06627388 117.08611745 -211.09472656 112.98779297 C-211.10981806 111.21365009 -211.13029355 109.43954453 -211.15625 107.66552734 C-211.19261805 105.11619864 -211.20965402 102.56736293 -211.22290039 100.01782227 C-211.23838425 99.22397629 -211.2538681 98.43013031 -211.26982117 97.61222839 C-211.27148738 92.16677512 -211.27148738 92.16677512 -209.84004211 89.92179871 C-206.94110356 87.96293502 -204.49888605 88.249478 -201.02758789 88.24291992 C-199.98077347 88.23503448 -199.98077347 88.23503448 -198.91281128 88.22698975 C-196.60579044 88.21378506 -194.29945951 88.22252897 -191.99243164 88.23266602 C-190.38964709 88.2306454 -188.78686343 88.22773407 -187.18408203 88.22396851 C-183.82486214 88.21954454 -180.46588154 88.22597839 -177.10668945 88.23999023 C-172.79886325 88.25708236 -168.49159774 88.24724154 -164.18379211 88.22927284 C-160.87410246 88.21843686 -157.56454594 88.22188045 -154.25485229 88.22965622 C-152.66641168 88.23165875 -151.07795901 88.22919708 -149.48953247 88.22221756 C-147.27012068 88.21460588 -145.0516193 88.22620206 -142.83227539 88.24291992 C-141.56891357 88.2453067 -140.30555176 88.24769348 -139.00390625 88.25015259 C-135.92993164 88.63110352 -135.92993164 88.63110352 -134.06103516 90.03036499 C-131.56454383 93.56340135 -131.81698122 96.19168474 -131.83569336 100.49243164 C-131.83848083 101.95617655 -131.8411506 103.41992168 -131.84371948 104.88366699 C-131.84829477 106.05074944 -131.84829477 106.05074944 -131.85296249 107.2414093 C-131.86431106 111.36874935 -131.8437923 115.49597961 -131.82836914 119.62329102 C-131.81012195 124.87251816 -131.80126222 130.12116056 -131.83032227 135.37036133 C-131.85297439 139.6136084 -131.84128107 143.85558295 -131.80731583 148.09873962 C-131.80058151 149.70930112 -131.80613002 151.31996635 -131.8246727 152.93043518 C-131.93445113 163.12915617 -130.87254089 169.68798942 -123.92993164 177.63110352 C-122.49310549 179.92051275 -121.2211629 182.255238 -119.92993164 184.63110352 C-117.28993164 184.63110352 -114.64993164 184.63110352 -111.92993164 184.63110352 C-111.93269702 183.57892498 -111.93269702 183.57892498 -111.93551826 182.5054903 C-111.97968646 165.43780978 -112.01278294 148.37014377 -112.03355598 131.30241871 C-112.04386867 123.0485968 -112.05792887 114.79481305 -112.08081055 106.54101562 C-112.10074464 99.34703044 -112.11364813 92.15307288 -112.11810863 84.95906085 C-112.12071598 81.14987085 -112.12684423 77.3407599 -112.14139175 73.53159523 C-112.15497597 69.94558063 -112.15915259 66.35967757 -112.156147 62.77363968 C-112.15695875 60.8315463 -112.16771602 58.88946504 -112.17877197 56.94740295 C-112.17602264 55.78779053 -112.17327332 54.6281781 -112.17044067 53.4334259 C-112.17320605 51.92491168 -112.17320605 51.92491168 -112.1760273 50.38592243 C-111.91163957 47.42634024 -111.26593522 45.27893972 -109.92993164 42.63110352 C-107.00340256 41.16783898 -104.40908325 41.48760188 -101.14111328 41.4699707 C-100.44338303 41.4650058 -99.74565277 41.46004089 -99.02677917 41.45492554 C-96.71453879 41.44029894 -94.40236697 41.43350165 -92.09008789 41.42797852 C-90.48587542 41.42222812 -88.88166298 41.41647038 -87.27745056 41.41070557 C-83.91234008 41.40019461 -80.5472535 41.39435235 -77.18212891 41.39086914 C-72.86648284 41.38537966 -68.55115153 41.36134259 -64.23560429 41.33289719 C-60.92165701 41.31429145 -57.60778592 41.30906635 -54.29379082 41.30753326 C-52.70254225 41.30450226 -51.11129517 41.29645869 -49.52009773 41.28334808 C-47.29586811 41.26632772 -45.07241252 41.26815735 -42.84814453 41.2746582 C-41.58176651 41.27101257 -40.31538849 41.26736694 -39.01063538 41.26361084 C-35.92993164 41.63110352 -35.92993164 41.63110352 -34.06004333 42.90338135 C-31.56756762 46.71389456 -31.80619761 50.74648237 -31.80967712 55.18634033 C-31.80839549 56.17151945 -31.80839549 56.17151945 -31.80708796 57.17660117 C-31.80544205 59.3753303 -31.81093995 61.57398299 -31.81640625 63.77270508 C-31.81668834 65.3496297 -31.81652996 66.92655446 -31.81596375 68.503479 C-31.81567662 72.78410885 -31.82155968 77.06471072 -31.8285377 81.34533405 C-31.83478533 85.81898673 -31.83537616 90.29264003 -31.83656311 94.76629639 C-31.83967226 103.23766874 -31.84788006 111.70902821 -31.8579126 120.18039489 C-31.86908664 129.82480057 -31.87458745 139.46920687 -31.87960804 149.11361742 C-31.890063 168.95278665 -31.90765441 188.79194427 -31.92993164 208.63110352 C-31.32407227 208.60790039 -30.71821289 208.58469727 -30.09399414 208.56079102 C-23.78118135 208.42482274 -18.06561235 209.16898386 -11.92993164 210.63110352 C-11.93454061 209.57919736 -11.93914957 208.5272912 -11.9438982 207.4435091 C-12.05483153 181.86376609 -12.1370297 156.28405423 -12.1889925 130.70412159 C-12.21478841 118.33391083 -12.24996565 105.96385885 -12.30712891 93.59375 C-12.35692114 82.81359954 -12.38921255 72.03356405 -12.40037411 61.2533018 C-12.40689989 55.54369578 -12.42226653 49.83441871 -12.45858192 44.12491798 C-12.49247511 38.75280185 -12.50299799 33.38115073 -12.49547005 28.00893784 C-12.49684757 26.03562965 -12.50681961 24.06230619 -12.52595901 22.08909035 C-12.55079287 19.39714256 -12.54487251 16.70695638 -12.53120422 14.01496887 C-12.54576843 13.23188868 -12.56033264 12.44880849 -12.57533818 11.64199859 C-12.52046802 7.65125539 -12.08372547 5.82764184 -9.59434128 2.64637375 C-6.19186838 0.07285718 -4.24054699 0.00334192 0 0 Z M2.07006836 14.63110352 C2.07006836 80.63110352 2.07006836 146.63110352 2.07006836 214.63110352 C8.34006836 217.93110352 14.61006836 221.23110352 21.07006836 224.63110352 C25.96109346 228.22048484 30.531674 231.67234105 35.07006836 235.63110352 C36.09100586 236.5012207 36.09100586 236.5012207 37.13256836 237.38891602 C41.74957447 241.64254664 45.19324081 246.83385171 48.69604492 252.00927734 C49.77434882 253.58269039 50.91718485 255.11148924 52.07006836 256.63110352 C52.73006836 256.63110352 53.39006836 256.63110352 54.07006836 256.63110352 C54.07006836 176.77110352 54.07006836 96.91110352 54.07006836 14.63110352 C36.91006836 14.63110352 19.75006836 14.63110352 2.07006836 14.63110352 Z M-97.92993164 54.63110352 C-97.92993164 97.53110352 -97.92993164 140.43110352 -97.92993164 184.63110352 C-89.01993164 187.10610352 -89.01993164 187.10610352 -79.92993164 189.63110352 C-72.5553097 193.16083709 -67.61175306 195.91994395 -61.92993164 201.63110352 C-61.26993164 201.63110352 -60.60993164 201.63110352 -59.92993164 201.63110352 C-59.59993164 202.62110352 -59.26993164 203.61110352 -58.92993164 204.63110352 C-58.26993164 204.63110352 -57.60993164 204.63110352 -56.92993164 204.63110352 C-55.93993164 206.61110352 -55.93993164 206.61110352 -54.92993164 208.63110352 C-51.95993164 208.63110352 -48.98993164 208.63110352 -45.92993164 208.63110352 C-45.92993164 157.81110352 -45.92993164 106.99110352 -45.92993164 54.63110352 C-63.08993164 54.63110352 -80.24993164 54.63110352 -97.92993164 54.63110352 Z M-197.92993164 101.63110352 C-197.92993164 110.87110352 -197.92993164 120.11110352 -197.92993164 129.63110352 C-193.07274414 130.96141602 -193.07274414 130.96141602 -188.11743164 132.31860352 C-180.38592874 134.49544018 -173.04731094 136.84578475 -165.92993164 140.63110352 C-165.17067383 141.01911133 -164.41141602 141.40711914 -163.62915039 141.80688477 C-158.42610948 144.56566466 -153.66640179 147.82492373 -148.89868164 151.27563477 C-147.19102913 152.72561744 -147.19102913 152.72561744 -145.92993164 152.63110352 C-145.92993164 135.80110352 -145.92993164 118.97110352 -145.92993164 101.63110352 C-163.08993164 101.63110352 -180.24993164 101.63110352 -197.92993164 101.63110352 Z M-286.67993164 175.50610352 C-296.81285772 187.63602963 -302.86363037 202.12492735 -307.16821289 217.18188477 C-307.92993164 219.63110352 -307.92993164 219.63110352 -308.92993164 220.63110352 C-310.30083938 220.81030837 -311.67951906 220.93086143 -313.05883789 221.02563477 C-340.51556083 223.12446659 -363.629074 230.89251159 -382.58032227 252.03149414 C-397.66006493 269.90459001 -405.56919348 292.58527302 -403.65649414 315.97485352 C-401.65311855 333.9674343 -395.82773272 350.74214152 -383.92993164 364.63110352 C-382.96313477 365.83186523 -382.96313477 365.83186523 -381.97680664 367.05688477 C-368.30207771 383.33994162 -347.10295911 394.63532777 -325.92993164 396.63110352 C-321.87610551 396.77800496 -317.82484828 396.77462873 -313.76869202 396.77154541 C-312.54485084 396.77451653 -311.32100965 396.77748765 -310.06008238 396.78054881 C-306.67489834 396.78770696 -303.28976507 396.7904064 -299.90457714 396.79114628 C-296.2485942 396.79300308 -292.59262212 396.80055366 -288.93664551 396.80728149 C-280.94657263 396.82084137 -272.95650479 396.8268862 -264.96642232 396.83129215 C-259.97162155 396.8340592 -254.97682271 396.83829745 -249.98202324 396.84279633 C-236.137159 396.85498716 -222.29229629 396.86528604 -208.4474268 396.86867142 C-207.56194665 396.86889098 -206.6764665 396.86911055 -205.76415363 396.86933677 C-204.87661833 396.86955505 -203.98908304 396.86977332 -203.07465273 396.86999822 C-201.27633099 396.87044167 -199.47800924 396.87088824 -197.6796875 396.87133789 C-196.78766793 396.87155932 -195.89564836 396.87178075 -194.9765979 396.87200889 C-180.53837523 396.87595281 -166.10020315 396.89339527 -151.66200001 396.91669741 C-136.81785624 396.94046009 -121.9737378 396.95287554 -107.12957472 396.95403934 C-98.8035646 396.95495347 -90.47762037 396.96063932 -82.15162849 396.97885895 C-75.05847952 396.9943266 -67.96541679 396.99934145 -60.87225414 396.99112085 C-57.25910788 396.98723744 -53.64613495 396.98802941 -50.03301048 397.00217819 C-24.58306306 397.26145196 -24.58306306 397.26145196 -0.24243164 390.50610352 C0.45615967 390.20897461 1.15475098 389.9118457 1.87451172 389.60571289 C11.77155588 385.20853145 21.73479164 378.63120894 29.07006836 370.63110352 C29.07006836 369.97110352 29.07006836 369.31110352 29.07006836 368.63110352 C29.73006836 368.63110352 30.39006836 368.63110352 31.07006836 368.63110352 C46.89459171 351.29635594 54.95017396 327.42013567 53.94506836 304.13110352 C51.62670557 278.78899991 40.37547083 257.44970602 21.08569336 240.93188477 C19.13407713 239.39559182 17.14182219 238.00101321 15.07006836 236.63110352 C13.81709961 235.78612305 13.81709961 235.78612305 12.53881836 234.92407227 C-3.61696895 224.73793714 -21.32157003 221.4663095 -40.16040039 221.68579102 C-61.26978441 221.79647892 -61.26978441 221.79647892 -65.62524414 218.36938477 C-68.05493164 215.50610352 -68.05493164 215.50610352 -70.03930664 212.49438477 C-75.81971722 203.74016792 -87.64816566 200.16410688 -97.45336914 198.09985352 C-105.07538591 197.0145178 -112.70450777 198.36405383 -120.13696289 200.16625977 C-121.92993164 200.56860352 -121.92993164 200.56860352 -124.92993164 200.63110352 C-128.95731165 197.21937395 -131.24762055 193.58474413 -133.67993164 188.94360352 C-136.82771446 183.13696185 -140.43855866 178.39655112 -145.04711914 173.61938477 C-146.92993164 171.63110352 -146.92993164 171.63110352 -148.92993164 168.63110352 C-149.58993164 168.63110352 -150.24993164 168.63110352 -150.92993164 168.63110352 C-150.92993164 167.97110352 -150.92993164 167.31110352 -150.92993164 166.63110352 C-172.14382065 148.52614651 -196.33367435 140.72491244 -224.17797852 142.3918457 C-248.92507279 144.54338513 -270.05788152 157.63739963 -286.67993164 175.50610352 Z " fill="#000000" transform="translate(430.929931640625,50.368896484375)"/>
<path d="M0 0 C1.0537669 0.00027654 1.0537669 0.00027654 2.12882203 0.00055867 C3.24068007 -0.00495636 3.24068007 -0.00495636 4.37499988 -0.0105828 C6.87772019 -0.02166293 9.38039905 -0.02547077 11.88314027 -0.02927226 C13.6698797 -0.03553363 15.45661782 -0.04218014 17.2433545 -0.04918498 C22.11117266 -0.0666249 26.97898099 -0.07715481 31.84682268 -0.08539051 C34.88531974 -0.09053417 37.9238137 -0.09661017 40.96230859 -0.10290164 C50.46103187 -0.12196178 59.95974734 -0.13619133 69.45848608 -0.14451361 C80.43809542 -0.15429103 91.41750343 -0.1806203 102.3970418 -0.2210145 C110.87348922 -0.25113388 119.34987879 -0.26597849 127.8263787 -0.26929462 C132.89369225 -0.27164986 137.96079092 -0.28067149 143.02804726 -0.30575579 C147.79442342 -0.32896864 152.56044219 -0.33329723 157.32686013 -0.32299441 C159.07804267 -0.32249728 160.82924239 -0.32886958 162.58037156 -0.34255046 C164.96812948 -0.36016385 167.35459011 -0.35321647 169.74234742 -0.3400175 C170.43816652 -0.35098674 171.13398563 -0.36195599 171.85089016 -0.37325764 C175.1732334 -0.3288049 176.87800683 -0.03968343 179.56019849 1.98680764 C181.66875455 4.89665932 181.64960825 6.63247842 181.12606019 10.14772969 C179.27263244 12.70722516 178.18849625 13.12691767 175.12606019 14.14772969 C172.76610696 14.24666321 170.40339381 14.2827808 168.04137391 14.28817159 C166.95251226 14.29262827 166.95251226 14.29262827 165.84165341 14.29717499 C163.40275266 14.30586514 160.96390098 14.3073705 158.52498597 14.30886251 C156.7789827 14.31349041 155.03298045 14.31851504 153.28697938 14.32390767 C148.53903923 14.33703528 143.79111322 14.3434772 139.04315776 14.34791833 C136.07801118 14.35084814 133.11286848 14.35495274 130.14772385 14.3594225 C120.87379003 14.37309764 111.59986505 14.38276453 102.32592183 14.3866244 C91.61409032 14.39110703 80.90238629 14.40866437 70.19059354 14.43762499 C61.91451225 14.45922519 53.63846687 14.46932777 45.36235768 14.47066551 C40.41748495 14.47171462 35.47273205 14.47764506 30.52788895 14.49548513 C25.8772539 14.51193736 21.22682914 14.5141352 16.57617539 14.50534612 C14.86895659 14.50457425 13.16172661 14.5089382 11.45453614 14.51880437 C9.12434366 14.53148167 6.79490075 14.52567055 4.46471375 14.51522237 C2.50852207 14.51742221 2.50852207 14.51742221 0.51281136 14.51966649 C-3.11328864 14.12144414 -5.00551011 13.36394248 -7.87393981 11.14772969 C-8.87393981 8.77272969 -8.87393981 8.77272969 -8.87393981 6.14772969 C-6.36921065 1.13827136 -5.54636107 0.03902877 0 0 Z " fill="#000000" transform="translate(210.87393981218338,355.8522703051567)"/>
<path d="M0 0 C0.70367201 -0.0055344 1.40734402 -0.01106879 2.13233942 -0.0167709 C4.49023248 -0.03038441 6.84706827 -0.01540555 9.2049408 -0.00050354 C10.89522756 -0.00428645 12.58551123 -0.00978626 14.27578735 -0.01687622 C18.86664615 -0.03085076 23.45713103 -0.01964759 28.0479691 -0.00316501 C32.84854133 0.01067163 37.64909155 0.00422708 42.44967651 0.0007019 C50.51073748 -0.00200106 58.57164961 0.01148366 66.63267517 0.03465271 C75.9588088 0.06127201 85.2846937 0.06300701 94.6108523 0.05126435 C103.57566776 0.04049453 112.54039305 0.04666678 121.50520134 0.06081963 C125.32374128 0.06658545 129.14221537 0.0664921 132.9607563 0.06175423 C137.45467474 0.05699054 141.94831992 0.0670607 146.44218636 0.08870888 C148.09379149 0.09428492 149.74542284 0.09473458 151.39702988 0.08975601 C153.64690961 0.08382331 155.89594815 0.09626831 158.14575195 0.11352539 C159.40617845 0.11595529 160.66660494 0.11838518 161.96522617 0.12088871 C165.00938416 0.50120544 165.00938416 0.50120544 166.88757992 1.8730917 C168.42307136 4.10160416 168.81227571 5.80738999 169.00938416 8.50120544 C168.21823956 11.0184837 167.55653325 12.13863582 165.35393429 13.59819317 C162.21044417 14.80892018 159.55325343 14.7562728 156.18408203 14.76190186 C155.15519203 14.76764018 155.15519203 14.76764018 154.10551637 14.77349442 C151.80785065 14.78381051 149.51043547 14.77983499 147.2127533 14.77586365 C145.56512216 14.78021089 143.91749305 14.78539408 142.26986694 14.79135132 C137.79468145 14.80475108 133.31958036 14.80531891 128.84437871 14.80278802 C125.109194 14.80171899 121.37402643 14.80659991 117.63884538 14.81139344 C108.82753085 14.82249195 100.01625894 14.82292406 91.2049408 14.81687927 C82.11289253 14.81083784 73.02099895 14.82315399 63.92897707 14.84444934 C56.12420192 14.86205799 48.31947604 14.86806788 40.51468176 14.8648116 C35.85264121 14.86299746 31.19071101 14.86564795 26.52868843 14.87952614 C22.14477442 14.89208793 17.76110179 14.89017608 13.37719154 14.87711525 C11.76834278 14.87474633 10.15947712 14.87749544 8.55064774 14.88573837 C6.3540408 14.89618123 4.1582475 14.88812581 1.96166992 14.87542725 C0.73258439 14.87559499 -0.49650114 14.87576273 -1.76283169 14.87593555 C-5.57960581 14.43282656 -8.25432845 13.23749284 -10.99061584 10.50120544 C-11.37491949 7.04247266 -11.49455433 5.19150789 -9.40799809 2.33331203 C-6.14474618 -0.13986958 -4.07447873 0.00067633 0 0 Z " fill="#000000" transform="translate(130.99061584472656,398.49879455566406)"/>
<path d="M0 0 C1.16087128 -0.0112793 2.32174255 -0.02255859 3.51779175 -0.03417969 C4.78752838 -0.02608276 6.05726501 -0.01798584 7.36547852 -0.00964355 C8.71917473 -0.01506501 10.07286505 -0.0221878 11.42654419 -0.03088379 C15.10015964 -0.04911779 18.77332571 -0.04204964 22.44694901 -0.02936745 C26.2914679 -0.01924003 30.13594834 -0.0286324 33.98046875 -0.03491211 C40.43667509 -0.0421893 46.8926984 -0.03259906 53.34887695 -0.0135498 C60.81303926 0.00821923 68.27676454 0.0011679 75.74091625 -0.02085543 C82.14953699 -0.03900751 88.55802617 -0.04156874 94.96666431 -0.03110075 C98.79424516 -0.0248647 102.62162059 -0.02403306 106.44918823 -0.0372467 C110.04774304 -0.04880198 113.64573443 -0.04078627 117.24422836 -0.01766968 C119.19480362 -0.00985777 121.14542654 -0.02174131 123.09597778 -0.03417969 C124.8372847 -0.01726074 124.8372847 -0.01726074 126.61376953 0 C127.62254654 0.0015081 128.63132355 0.0030162 129.67066956 0.00457001 C133.05013102 0.6498516 134.25782859 1.78398882 136.30688477 4.50793457 C136.36938477 8.07043457 136.36938477 8.07043457 135.30688477 11.50793457 C131.73670794 14.23605935 129.09429022 14.88374307 124.65209961 14.8888855 C122.96138336 14.90157471 122.96138336 14.90157471 121.23651123 14.91452026 C119.39576019 14.90541122 119.39576019 14.90541122 117.51782227 14.89611816 C116.21814514 14.90137512 114.91846802 14.90663208 113.57940674 14.91204834 C110.02154367 14.92570532 106.46394207 14.92043012 102.90607452 14.91091108 C99.17948206 14.90330604 95.45291172 14.91036244 91.72631836 14.91506958 C85.46862781 14.92052468 79.21104355 14.91334201 72.95336914 14.89904785 C65.72273173 14.88272174 58.49234811 14.88801043 51.26171684 14.90452707 C45.04925301 14.91814897 38.8368655 14.92005817 32.62439156 14.91221106 C28.91587286 14.90753839 25.20747339 14.90689844 21.4989624 14.91682053 C17.36447157 14.92711 13.23041702 14.91284134 9.09594727 14.89611816 C7.86877991 14.90219086 6.64161255 14.90826355 5.3772583 14.91452026 C4.25011414 14.90606079 3.12296997 14.89760132 1.96166992 14.8888855 C0.9846109 14.88775442 0.00755188 14.88662334 -0.99911499 14.88545799 C-4.48783767 14.39656623 -7.18590316 13.01514664 -9.69311523 10.50793457 C-10.08313967 6.99771468 -10.2191288 5.1932217 -8.02940369 2.34046173 C-5.12671818 0.06366666 -3.65870824 0.0054697 0 0 Z " fill="#000000" transform="translate(182.693115234375,312.4920654296875)"/>
<path d="M0 0 C0.6671553 -0.0071553 1.33431061 -0.01431061 2.02168274 -0.02168274 C4.2215373 -0.03855766 6.41935013 -0.01917833 8.61914062 0.00219727 C10.15083993 0.00136844 11.68253915 -0.00109148 13.2142334 -0.00511169 C16.42222918 -0.00796882 19.62952643 0.00672187 22.83740234 0.03417969 C26.94688634 0.06826345 31.05512143 0.0622441 35.16466522 0.04351711 C38.32690822 0.03294206 41.48886123 0.0418893 44.65107727 0.05690193 C46.16611367 0.06208057 47.6811804 0.06160577 49.19621277 0.05535698 C51.31506322 0.04989819 53.43213373 0.07029627 55.55078125 0.09765625 C56.75561157 0.10385483 57.96044189 0.11005341 59.20178223 0.11643982 C62.87696061 0.73183405 64.07226796 1.67259761 66.27539062 4.63110352 C66.74234843 7.89980812 66.9301434 9.72692111 64.96289062 12.44360352 C61.46312175 14.90640384 58.18416365 14.76730543 54.04736328 14.79223633 C52.76237946 14.80184387 51.47739563 14.81145142 50.1534729 14.8213501 C48.74880145 14.82619799 47.34412793 14.83047684 45.93945312 14.83422852 C44.4984029 14.8399823 43.05735269 14.84574 41.61630249 14.85150146 C38.5951095 14.8620028 35.57394305 14.86785118 32.55273438 14.87133789 C28.68681994 14.87682189 24.82125784 14.90085118 20.95545387 14.92930984 C17.97855615 14.94795918 15.00174292 14.95314303 12.02479172 14.95467377 C10.59986825 14.95769549 9.17494609 14.96570784 7.75008011 14.97885895 C5.75419363 14.99596601 3.75816144 14.99218765 1.76220703 14.98754883 C0.62764069 14.99119446 -0.50692566 14.99484009 -1.6758728 14.99859619 C-5.11440216 14.58411815 -6.98830471 13.72977048 -9.72460938 11.63110352 C-10.78710938 8.75610352 -10.78710938 8.75610352 -10.72460938 5.63110352 C-7.77054365 0.67687252 -5.65547046 0.00451451 0 0 Z " fill="#000000" transform="translate(325.724609375,398.368896484375)"/>
<path d="M0 0 C1.16801147 -0.01583633 2.33602295 -0.03167267 3.53942871 -0.04798889 C4.79678833 -0.04302902 6.05414795 -0.03806915 7.34960938 -0.03295898 C8.64402954 -0.03915756 9.93844971 -0.04535614 11.27209473 -0.05174255 C14.00921436 -0.06213994 16.74581388 -0.05759528 19.48291016 -0.04296875 C22.98726328 -0.02577309 26.48997794 -0.04928523 29.99414825 -0.08445835 C33.34189886 -0.11172154 36.68925281 -0.10169721 40.03710938 -0.09545898 C41.9231488 -0.1153463 41.9231488 -0.1153463 43.84729004 -0.13563538 C45.59930725 -0.11683571 45.59930725 -0.11683571 47.38671875 -0.09765625 C48.41390015 -0.09669449 49.44108154 -0.09573273 50.49938965 -0.09474182 C53.19335938 0.53344727 53.19335938 0.53344727 55.55236816 2.87757874 C57.19335938 5.53344727 57.19335938 5.53344727 57.25585938 8.65844727 C55.90283261 12.31957851 54.65663719 12.85819632 51.19335938 14.53344727 C48.53771973 14.91439819 48.53771973 14.91439819 45.65625 14.92163086 C44.02931213 14.93581558 44.02931213 14.93581558 42.36950684 14.95028687 C41.20794067 14.94421417 40.04637451 14.93814148 38.84960938 14.93188477 C37.04683533 14.93619003 37.04683533 14.93619003 35.2076416 14.94058228 C32.66918465 14.94262178 30.13071195 14.93709996 27.59228516 14.92456055 C23.7076502 14.90850633 19.82405574 14.92441422 15.93945312 14.94360352 C13.47200291 14.94162106 11.00455335 14.93777735 8.53710938 14.93188477 C7.37554321 14.93795746 6.21397705 14.94403015 5.01721191 14.95028687 C3.93258667 14.94083038 2.84796143 14.9313739 1.73046875 14.92163086 C0.30414124 14.91805069 0.30414124 14.91805069 -1.15100098 14.91439819 C-4.61407314 14.41762125 -7.31680694 13.02328095 -9.80664062 10.53344727 C-10.19609024 7.02840069 -10.33148423 5.21963358 -8.15002441 2.36756897 C-5.22249526 0.07624786 -3.6883744 0.02225768 0 0 Z " fill="#000000" transform="translate(129.806640625,355.466552734375)"/>
<path d="M0 0 C1.07245972 -0.0038269 2.14491943 -0.00765381 3.24987793 -0.01159668 C5.51604146 -0.01431716 7.78223631 -0.00694653 10.04833984 0.00976562 C13.51861528 0.03117206 16.98682027 0.00996725 20.45703125 -0.015625 C22.65885874 -0.01298175 24.86068494 -0.00785683 27.0625 0 C28.10112183 -0.00809692 29.13974365 -0.01619385 30.20983887 -0.02453613 C37.34575912 0.06843132 37.34575912 0.06843132 40.71289062 2.34179688 C42.03125 4.53125 42.03125 4.53125 42.09375 8.09375 C41.03125 11.53125 41.03125 11.53125 39.11328125 13.21899414 C34.63229808 15.12689057 30.48002896 14.97952276 25.65625 14.96484375 C24.65416504 14.9700856 23.65208008 14.97532745 22.61962891 14.98072815 C20.50489222 14.98714012 18.39011984 14.98582206 16.27539062 14.97729492 C13.04232276 14.96877917 9.8110187 14.99756808 6.578125 15.02929688 C4.52083386 15.03090889 2.4635396 15.03033135 0.40625 15.02734375 C-0.55845215 15.03857773 -1.5231543 15.04981171 -2.51708984 15.06138611 C-6.82113912 15.01674396 -9.31682578 14.91728198 -13.08203125 12.68774414 C-14.96875 10.53125 -14.96875 10.53125 -15.53125 7.53125 C-13.93874781 -0.96209504 -7.11919716 -0.05550008 0 0 Z " fill="#000000" transform="translate(349.96875,312.46875)"/>
</svg>
